<?xml version="1.0" encoding="UTF-8"?>
<!DOCTYPE svg PUBLIC "-//W3C//DTD SVG 1.1//EN" "http://www.w3.org/Graphics/SVG/1.1/DTD/svg11.dtd">
<!-- Creator: CorelDRAW X7 -->
<svg xmlns="http://www.w3.org/2000/svg" xml:space="preserve" width="21.8198mm" height="19.7186mm" version="1.1" style="shape-rendering:geometricPrecision; text-rendering:geometricPrecision; image-rendering:optimizeQuality; fill-rule:evenodd; clip-rule:evenodd"
viewBox="0 0 4081 3688"
 xmlns:xlink="http://www.w3.org/1999/xlink">
 <defs>
  <style type="text/css">
   <![CDATA[
    .fil0 {fill:#FCFAFC;fill-rule:nonzero}
   ]]>
  </style>
 </defs>
 <g id="Layer_x0020_1">
  <metadata id="CorelCorpID_0Corel-Layer"/>
  <path class="fil0" d="M1983 333c75,-75 75,-200 0,-275 -77,-77 -201,-77 -277,0l-1648 1648c-77,76 -77,200 0,277l1648 1647c76,77 200,77 277,0 75,-75 75,-200 0,-275l-1320 -1320 3231 0c103,0 187,-84 187,-187 0,-103 -84,-187 -187,-187l-3239 0 1328 -1328 0 0z"/>
 </g>
</svg>
