<?xml version="1.0" encoding="UTF-8"?>
<!DOCTYPE svg PUBLIC "-//W3C//DTD SVG 1.1//EN" "http://www.w3.org/Graphics/SVG/1.1/DTD/svg11.dtd">
<!-- Creator: CorelDRAW X7 -->
<?xml-stylesheet href="brainPurp2.css" type="text/css"?>
<svg xmlns="http://www.w3.org/2000/svg" xml:space="preserve" width="24.8072mm" height="22.644mm" version="1.1" style="shape-rendering:geometricPrecision; text-rendering:geometricPrecision; image-rendering:optimizeQuality; fill-rule:evenodd; clip-rule:evenodd"
viewBox="0 0 311 284"
 xmlns:xlink="http://www.w3.org/1999/xlink">
 <g id="Layer_x0020_1">
  <metadata id="CorelCorpID_0Corel-Layer"/>
  <g id="_2084419627312">
   <path class="fil0" d="M97 115c1,-1 1,-1 2,-1 0,-1 0,-2 0,-3 0,-6 5,-11 11,-11 6,0 11,5 11,11 0,6 -5,11 -11,11 -2,0 -4,0 -5,-1 0,0 0,0 0,1 -1,0 -26,27 -41,10 -9,4 -24,17 -24,17 -2,2 -5,2 -7,0 -2,-2 -2,-5 0,-7 0,0 15,-13 26,-18 0,-2 -1,-3 -1,-4 -1,-3 1,-6 3,-6 3,-1 6,0 6,3 7,23 30,-2 30,-2zm86 -72c2,0 4,2 4,4 0,2 -2,4 -4,4 -3,0 -5,-2 -5,-4 0,-2 2,-4 5,-4zm-73 64c2,0 4,2 4,4 0,2 -2,4 -4,4 -2,0 -4,-2 -4,-4 0,-2 2,-4 4,-4zm2 37c3,0 5,2 5,4 0,2 -2,4 -5,4 -2,0 -4,-2 -4,-4 0,-2 2,-4 4,-4zm60 -2c2,0 4,1 4,4 0,2 -2,4 -4,4 -3,0 -4,-2 -4,-4 0,-3 1,-4 4,-4zm104 -13c3,0 5,2 5,4 0,3 -2,5 -5,5 -2,0 -4,-2 -4,-5 0,-2 2,-4 4,-4zm-62 -44c2,0 4,2 4,4 0,3 -2,4 -4,4 -2,0 -4,-1 -4,-4 0,-2 2,-4 4,-4zm61 -7c2,0 4,2 4,4 0,3 -2,5 -4,5 -2,0 -4,-2 -4,-5 0,-2 2,-4 4,-4zm-147 -11c2,0 4,2 4,4 0,3 -2,5 -4,5 -2,0 -4,-2 -4,-5 0,-2 2,-4 4,-4zm-69 -21c2,0 4,1 4,4 0,2 -2,4 -4,4 -3,0 -5,-2 -5,-4 0,-3 2,-4 5,-4zm60 -40l0 0zm-58 22l0 0zm38 118c1,0 2,0 2,0 1,-5 6,-9 11,-9 6,0 11,5 11,11 0,6 -5,11 -11,11 -3,0 -6,-2 -8,-4 -1,0 -1,1 -1,1 0,0 -13,4 -13,16 0,0 0,0 0,0 0,0 27,24 55,14 -1,-9 -2,-30 15,-39 0,0 1,0 1,0 0,-1 0,-1 0,-1 0,-6 5,-11 11,-11 6,0 11,5 11,11 0,6 -5,11 -11,11 -2,0 -5,-1 -6,-2 -1,0 -1,0 -1,1 -15,8 -10,31 -10,31 0,0 0,0 0,0 0,0 1,0 1,0 1,2 15,17 43,-3 -4,-5 -8,-13 -5,-26 0,-2 3,-4 6,-3 2,0 4,3 3,5 -2,14 5,19 7,20 6,-2 13,-6 18,-14 8,-13 20,15 34,0 0,0 0,-1 0,-1 -3,-7 -6,-18 3,-26 0,-1 1,-1 1,-1 0,-2 -1,-3 -1,-5 0,-6 5,-11 11,-11 7,0 12,5 12,11 0,6 -5,11 -12,11 -1,0 -2,0 -3,0 0,0 -1,1 -1,2 -6,5 -1,14 1,18 12,2 50,3 35,-46 -7,2 -20,4 -31,-4 -2,-2 -3,-5 -1,-7 1,-2 4,-3 7,-1 10,8 24,2 26,1 1,-10 2,-24 -11,-30 -8,-3 -4,-24 -29,-31 -1,3 -3,6 -5,9 1,4 2,14 6,16 0,0 1,1 1,1 1,-1 3,-1 4,-1 6,0 11,5 11,11 0,6 -5,11 -11,11 -6,0 -11,-5 -11,-11 0,-1 0,-2 0,-3 -4,-2 -6,-8 -7,-13 -7,7 -15,10 -25,-1 -2,-2 -2,-5 0,-7 2,-2 5,-2 7,0 6,7 11,2 16,-5 0,-1 0,-2 1,-3 3,-6 5,-11 5,-11 -5,-7 -11,-16 -26,-16 -3,7 -12,21 -23,25 -2,1 -5,-1 -6,-3 -1,-3 1,-6 3,-7 7,-2 14,-13 17,-19 -6,-6 -30,-28 -64,-15 -3,7 -6,21 0,30 1,2 3,3 5,4 1,1 4,2 6,3 2,-3 6,-5 10,-5 6,0 11,5 11,11 0,6 -5,11 -11,11 -5,0 -10,-3 -11,-8 -3,0 -5,-1 -7,-2 -1,12 -5,28 -26,28 -1,0 -1,0 -1,0 -2,4 -6,6 -10,6 -6,0 -11,-4 -11,-11 0,-6 5,-11 11,-11 4,0 8,3 10,7 0,0 0,0 1,0 19,-1 16,-23 15,-27 0,0 0,-1 0,-1 -7,-10 -5,-24 -3,-34 -18,-7 -27,2 -32,1 -15,-2 -21,5 -26,7 4,5 8,11 8,19 3,10 12,9 15,9l1 0c3,0 5,2 5,4 0,3 -2,5 -5,5 0,0 0,0 0,0 -3,1 -14,2 -21,-6 -2,3 -6,6 -11,9 -2,1 -5,1 -6,-2 -2,-2 -1,-5 1,-6 21,-13 2,-29 1,-31 -13,3 -15,12 -20,14 -1,0 -33,9 -44,42 0,0 0,1 0,1 3,3 12,12 23,11 4,0 8,-2 13,-3l1 -18c0,0 0,-1 0,-1 -4,-2 -7,-6 -7,-10 0,-6 5,-11 12,-11 6,0 11,5 11,11 0,4 -3,8 -7,10 0,0 0,1 0,1l0 15c14,-4 29,-5 40,10 2,2 1,6 -1,7 -2,2 -5,1 -7,-1 -9,-13 -25,-8 -38,-4 -6,2 -12,3 -16,4 -15,1 -26,-10 -31,-14 -6,6 -14,15 -8,32 18,0 24,8 24,8 2,2 2,5 0,7 -2,2 -5,2 -7,0 0,0 -4,-5 -16,-5 -3,11 -10,53 36,45 6,-1 20,14 41,7 0,-19 19,-26 19,-26zm73 -39c-7,-10 -5,-24 -5,-24 0,-3 3,-5 6,-4 2,0 4,3 4,5 0,0 -4,25 20,25 3,0 5,2 5,5 0,2 -2,5 -5,5 -8,0 -14,-2 -18,-5 -9,16 -26,13 -26,13 -3,0 -4,-3 -4,-5 0,-3 3,-5 5,-4 0,0 13,1 18,-11zm49 -9c0,0 0,0 0,0 -2,1 -4,2 -7,2 -6,0 -11,-5 -11,-11 0,-6 5,-11 11,-11 6,0 11,5 11,11l0 0c1,1 28,13 19,32 4,5 8,4 8,4 3,-1 6,1 6,3 1,3 -1,6 -3,6 0,0 -9,2 -17,-5 -3,4 -8,7 -14,11 -2,1 -5,1 -6,-1 -2,-3 -1,-6 1,-7 32,-20 2,-34 2,-34z"/>
   <path class="fil0" d="M197 202c-26,14 -42,4 -49,-2 -5,2 -9,2 -13,3 3,13 10,40 26,46 25,10 33,27 35,31 1,2 7,9 27,-1l0 0 1 0c0,0 14,-3 -15,-39l0 0c0,0 -12,-16 -12,-38z"/>
   <path class="fil0" d="M212 194c-3,20 8,36 9,37 0,0 1,1 1,2l0 -1c9,6 21,3 33,-2 18,-8 34,-23 41,-33 6,-8 4,-15 2,-19 -11,3 -23,1 -28,1 -13,10 -26,5 -34,1 -8,8 -18,12 -24,14z"/>
  </g>
 </g>
</svg>
