<?xml version="1.0" encoding="UTF-8"?>
<!DOCTYPE svg PUBLIC "-//W3C//DTD SVG 1.1//EN" "http://www.w3.org/Graphics/SVG/1.1/DTD/svg11.dtd">
<!-- Creator: CorelDRAW X7 -->
<svg xmlns="http://www.w3.org/2000/svg" xml:space="preserve" width="23.5952mm" height="25.4334mm" version="1.1" style="shape-rendering:geometricPrecision; text-rendering:geometricPrecision; image-rendering:optimizeQuality; fill-rule:evenodd; clip-rule:evenodd"
viewBox="0 0 368 397"
 xmlns:xlink="http://www.w3.org/1999/xlink">
 <defs>
  <style type="text/css">
   <![CDATA[
    .fil0 {fill:#FCFAFC}
   ]]>
  </style>
 </defs>
 <g id="Layer_x0020_1">
  <metadata id="CorelCorpID_0Corel-Layer"/>
  <g id="_2084400508176">
   <path class="fil0" d="M359 65c-5,-6 -12,-8 -19,-8l-29 0 0 -22c0,-9 -3,-18 -10,-25 -7,-6 -15,-10 -25,-10l-14 0c-10,0 -18,4 -25,10 -7,7 -11,16 -11,25l0 22 -85 0 0 -22c0,-9 -3,-18 -10,-25 -7,-6 -15,-10 -25,-10l-14 0c-10,0 -18,4 -25,10 -7,7 -11,16 -11,25l0 22 -28 0c-8,0 -14,2 -20,8 -5,6 -8,12 -8,20l0 284c0,8 3,14 8,20 6,5 12,8 20,8l312 0c8,0 14,-3 20,-8 6,-6 8,-13 8,-20l0 -284c0,-7 -3,-14 -9,-20zm-104 -29l28 0 0 50 -28 0 0 -50zm-170 -1l28 0 0 51 -28 0 0 -51zm6 334l-63 0 0 -64 63 0 0 64zm0 -78l-63 0 0 -71 63 0 0 71zm0 -85l-63 0 0 -64 63 0 0 64zm85 163l-71 0 0 -64 71 0 0 64zm0 -78l-71 0 0 -71 71 0 0 71zm0 -85l-71 0 0 -64 71 0 0 64zm85 163l-71 0 0 -64 71 0 0 64zm0 -78l-71 0 0 -71 71 0 0 71zm0 -85l-71 0 0 -64 71 0 0 64zm79 163l-64 0 0 -64 64 0 0 64zm0 -78l-64 0 0 -71 64 0 0 71zm0 -85l-64 0 0 -64 64 0 0 64z"/>
  </g>
 </g>
</svg>
