<?xml version="1.0" encoding="UTF-8"?>
<!DOCTYPE svg PUBLIC "-//W3C//DTD SVG 1.1//EN" "http://www.w3.org/Graphics/SVG/1.1/DTD/svg11.dtd">
<!-- Creator: CorelDRAW X7 -->
<svg xmlns="http://www.w3.org/2000/svg" xml:space="preserve" width="35.0997mm" height="31.15mm" version="1.1" style="shape-rendering:geometricPrecision; text-rendering:geometricPrecision; image-rendering:optimizeQuality; fill-rule:evenodd; clip-rule:evenodd"
viewBox="0 0 635 563"
 xmlns:xlink="http://www.w3.org/1999/xlink">
 <defs>
  <style type="text/css">
   <![CDATA[
    .fil0 {fill:#DC7777}
   ]]>
  </style>
 </defs>
 <g id="Layer_x0020_1">
  <metadata id="CorelCorpID_0Corel-Layer"/>
  <path class="fil0" d="M302 511l30 0 0 25 -30 0 0 -25zm-302 -511l0 124c0,0 0,0 0,0 0,26 21,48 48,48l539 0c26,0 48,-22 48,-48 0,0 0,0 0,0l0 -124 -635 0zm397 123l-159 0 0 -29 160 0 -1 29zm-346 171c0,91 47,176 124,224 -24,-31 -38,-70 -38,-109 0,-100 81,-180 180,-180 100,0 180,80 180,180 0,39 -13,78 -37,109 77,-48 124,-133 124,-224l0 -93 -533 0 0 93zm346 216l-18 -19 19 -20 19 18 -20 21zm-180 -20l18 -19 21 19 -19 20 -20 -20zm201 -95l27 0 0 29 -27 0 0 -29zm-229 0l27 0 0 29 -27 0 0 -29zm128 88c-23,0 -40,-10 -51,-21 -21,-21 -28,-51 -17,-81 18,-44 80,-63 121,-22 28,28 27,75 -1,102 -12,12 -28,22 -52,22zm62 -154l18 -19 20 19 -19 20 -19 -20zm-144 20l-18 -19 20 -20 19 18 -21 21zm67 -66l30 0 0 25 -30 0 0 -25zm12 280c50,0 86,-19 112,-45 12,-11 25,-30 31,-44 9,-23 13,-37 15,-63 0,-16 -6,-46 -13,-62 -5,-9 -8,-16 -13,-24 -43,-64 -129,-88 -195,-54 -42,21 -74,57 -84,105 -3,14 -5,28 -3,42 1,12 -1,8 3,25 4,18 13,39 23,53 25,37 71,67 124,67z"/>
 </g>
</svg>
