<?xml version="1.0" encoding="UTF-8"?>
<!DOCTYPE svg PUBLIC "-//W3C//DTD SVG 1.1//EN" "http://www.w3.org/Graphics/SVG/1.1/DTD/svg11.dtd">
<!-- Creator: CorelDRAW X7 -->
<svg xmlns="http://www.w3.org/2000/svg" xml:space="preserve" width="20.9632mm" height="20.963mm" version="1.1" style="shape-rendering:geometricPrecision; text-rendering:geometricPrecision; image-rendering:optimizeQuality; fill-rule:evenodd; clip-rule:evenodd"
viewBox="0 0 227 227"
 xmlns:xlink="http://www.w3.org/1999/xlink"
 enable-background="new 0 0 100 100">
 <defs>
  <style type="text/css">
   <![CDATA[
    .fil0 {fill:#FBC7AE}
   ]]>
  </style>
 </defs>
 <g id="Layer_x0020_1">
  <metadata id="CorelCorpID_0Corel-Layer"/>
  <g id="noun_Electricity_806328.svg">
   <path class="fil0" d="M227 113c0,63 -51,114 -114,114 -62,0 -113,-51 -113,-114 0,-62 51,-113 113,-113 63,0 114,51 114,113l0 0zm-136 46l9 0 0 -25 -9 0 0 25zm41 -25l-9 0 0 25 9 0 0 -25zm4 -71c12,-5 27,2 32,14 7,18 8,37 5,55 -1,1 -1,2 -1,3 -9,33 -42,53 -76,45 -33,-9 -53,-42 -45,-76l-13 -3c-10,40 14,82 55,92 41,10 82,-14 92,-55 0,-1 1,-2 1,-3 4,-21 2,-43 -6,-63 -8,-20 -30,-29 -49,-21 -13,5 -22,17 -24,30l-9 0c-8,0 -15,7 -15,15l0 24 -5 0 0 10 68 0 0 -10 -6 0 0 -24c0,-8 -7,-15 -15,-15l-4 0c1,-8 7,-15 15,-18z"/>
  </g>
 </g>
</svg>
