<?xml version="1.0" encoding="UTF-8"?>
<!DOCTYPE svg PUBLIC "-//W3C//DTD SVG 1.1//EN" "http://www.w3.org/Graphics/SVG/1.1/DTD/svg11.dtd">
<!-- Creator: CorelDRAW X7 -->
<svg xmlns="http://www.w3.org/2000/svg" xml:space="preserve" width="20.1181mm" height="20.7436mm" version="1.1" style="shape-rendering:geometricPrecision; text-rendering:geometricPrecision; image-rendering:optimizeQuality; fill-rule:evenodd; clip-rule:evenodd"
viewBox="0 0 1936 1996"
 xmlns:xlink="http://www.w3.org/1999/xlink">
 <defs>
  <style type="text/css">
   <![CDATA[
    .fil0 {fill:#BDA5BB}
   ]]>
  </style>
 </defs>
 <g id="Layer_x0020_1">
  <metadata id="CorelCorpID_0Corel-Layer"/>
  <path class="fil0" d="M875 1421c11,-28 21,-59 31,-89 -51,-16 -100,-44 -140,-84 -98,-99 -123,-242 -75,-363 -65,-64 -103,-127 -103,-127 -124,-204 -267,-400 -442,-198 -260,301 -125,873 36,1035 162,162 423,181 584,19 56,-55 92,-122 109,-193zm337 -412c0,-114 -93,-207 -208,-207 -115,0 -208,93 -208,207 0,115 93,208 208,208 115,0 208,-93 208,-208zm-296 -997c-221,59 -368,275 -308,496 20,75 60,140 112,190 17,21 36,43 55,64 132,-123 339,-120 468,9 11,12 22,24 32,37 88,-25 163,-27 163,-27 239,-5 480,-30 392,-284 -130,-375 -693,-545 -914,-485zm507 913c-28,5 -58,11 -88,17 21,107 -9,223 -92,306 -54,53 -120,85 -190,95 -22,93 -60,162 -60,162 -115,209 -214,431 50,482 389,75 818,-328 877,-549 60,-221 -54,-456 -275,-515 -76,-20 -152,-18 -222,2z"/>
 </g>
</svg>
