<?xml version="1.0" encoding="UTF-8"?>
<!DOCTYPE svg PUBLIC "-//W3C//DTD SVG 1.1//EN" "http://www.w3.org/Graphics/SVG/1.1/DTD/svg11.dtd">
<!-- Creator: CorelDRAW X7 -->
<svg xmlns="http://www.w3.org/2000/svg" xml:space="preserve" width="23.8849mm" height="21.363mm" version="1.1" style="shape-rendering:geometricPrecision; text-rendering:geometricPrecision; image-rendering:optimizeQuality; fill-rule:evenodd; clip-rule:evenodd"
viewBox="0 0 418 373"
 xmlns:xlink="http://www.w3.org/1999/xlink"
 data-name="Layer 1">
 <defs>
  <style type="text/css">
   <![CDATA[
    .fil0 {fill:#BDA5BB}
   ]]>
  </style>
 </defs>
 <g id="Layer_x0020_1">
  <metadata id="CorelCorpID_0Corel-Layer"/>
  <g id="noun_Home_1221669_x0020__x0028_1_x0029_.svg">
   <path class="fil0" d="M409 154l-173 -144c-8,-6 -17,-10 -27,-10 -10,0 -20,4 -27,10l-15 12c-53,44 -106,88 -159,133 -5,4 -8,10 -8,16 0,0 0,1 0,1 0,8 0,17 0,25 0,10 3,13 13,13 12,0 24,0 36,0 6,0 7,1 7,7l0 66c0,20 0,41 0,62 0,18 11,29 29,28 23,0 46,0 69,0 0,0 0,0 0,0 2,0 4,0 5,0l0 -93 99 0 0 93c2,0 3,0 5,0 0,0 0,0 0,0 24,0 47,0 71,0 0,0 1,0 1,0 15,0 27,-11 27,-26 0,-1 0,-1 0,-2l0 -128c0,-6 1,-7 7,-7 12,0 25,0 38,0 0,0 1,0 1,0 5,0 10,-4 10,-9 0,-1 0,-1 -1,-2 0,-9 0,-18 0,-28 0,0 0,0 0,0 0,-6 -3,-13 -8,-17l0 0z"/>
   <path class="fil0" d="M281 32c12,11 25,21 37,31l33 28c0,-26 0,-50 0,-75 -1,-7 -6,-13 -13,-13 -1,0 -1,0 -1,0 -15,0 -31,0 -46,0 0,0 0,0 0,0 -8,0 -14,6 -14,14 0,0 0,0 0,1 0,2 1,5 0,8 0,0 0,0 0,1 0,2 2,4 4,5l0 0z"/>
  </g>
 </g>
</svg>
