<?xml version="1.0" encoding="UTF-8"?>
<!DOCTYPE svg PUBLIC "-//W3C//DTD SVG 1.1//EN" "http://www.w3.org/Graphics/SVG/1.1/DTD/svg11.dtd">
<!-- Creator: CorelDRAW X7 -->
<svg xmlns="http://www.w3.org/2000/svg" xml:space="preserve" width="23.8849mm" height="21.363mm" version="1.1" style="shape-rendering:geometricPrecision; text-rendering:geometricPrecision; image-rendering:optimizeQuality; fill-rule:evenodd; clip-rule:evenodd"
viewBox="0 0 722 645"
 xmlns:xlink="http://www.w3.org/1999/xlink"
 data-name="Layer 1">
 <defs>
  <style type="text/css">
   <![CDATA[
    .fil0 {fill:#8799B8}
   ]]>
  </style>
 </defs>
 <g id="Layer_x0020_1">
  <metadata id="CorelCorpID_0Corel-Layer"/>
  <g id="noun_Home_1221669_x0020__x0028_1_x0029_.svg">
   <path class="fil0" d="M707 267l-299 -250c-13,-11 -30,-17 -47,-17 -17,0 -34,6 -47,17l-25 21c-92,77 -183,153 -275,229 -9,7 -14,18 -14,29 0,0 0,1 0,1 0,15 0,29 0,44 0,17 5,22 23,22 20,0 41,0 61,0 10,0 12,2 12,12l0 113c0,36 0,72 0,107 0,32 19,51 50,50 41,0 81,0 121,0 0,0 0,0 0,0 3,0 6,0 8,0l0 -162 171 0 0 162c3,0 5,0 8,0 0,0 0,0 0,0 41,0 82,0 123,0 1,0 2,0 3,0 25,0 45,-20 45,-45 0,-1 0,-2 0,-3l0 -222c0,-10 2,-12 12,-12 22,0 44,0 66,0 1,0 2,0 3,0 8,0 16,-7 16,-16 0,-1 0,-2 -1,-3 0,-16 0,-32 0,-48 0,0 0,0 0,0 0,-12 -5,-22 -14,-29l0 0z"/>
   <path class="fil0" d="M485 56c22,18 43,36 65,54l56 47c0,-45 0,-87 0,-129 -1,-13 -11,-22 -23,-22 0,0 0,0 0,0 -27,-1 -54,-1 -81,0 0,0 0,0 0,0 -12,0 -23,10 -23,23 0,0 0,1 0,1 0,5 1,10 0,15 0,0 0,1 0,1 0,4 2,8 6,10l0 0z"/>
  </g>
 </g>
</svg>
