<?xml version="1.0" encoding="UTF-8"?>
<!DOCTYPE svg PUBLIC "-//W3C//DTD SVG 1.1//EN" "http://www.w3.org/Graphics/SVG/1.1/DTD/svg11.dtd">
<!-- Creator: CorelDRAW X7 -->
<svg xmlns="http://www.w3.org/2000/svg" xml:space="preserve" width="17.2065mm" height="22.5477mm" version="1.1" style="shape-rendering:geometricPrecision; text-rendering:geometricPrecision; image-rendering:optimizeQuality; fill-rule:evenodd; clip-rule:evenodd"
viewBox="0 0 315 413"
 xmlns:xlink="http://www.w3.org/1999/xlink"
 enable-background="new 0 0 100 100">
 <defs>
  <style type="text/css">
   <![CDATA[
    .fil0 {fill:#DC7777}
   ]]>
  </style>
 </defs>
 <g id="Layer_x0020_1">
  <metadata id="CorelCorpID_0Corel-Layer"/>
  <g id="noun_Lock_747565.svg">
   <path class="fil0" d="M277 168l-12 0 0 -57c0,-61 -50,-111 -111,-111 -62,0 -112,50 -112,112l0 56 -4 0c-21,0 -38,17 -38,38l0 168c0,21 17,39 38,39l239 -1c21,0 38,-17 38,-38l0 -168c0,-21 -17,-38 -38,-38zm-194 0l0 -56c0,-39 32,-71 71,-71 38,0 70,32 70,70l0 57 -141 0z"/>
  </g>
 </g>
</svg>
