<?xml version="1.0" encoding="UTF-8"?>
<!DOCTYPE svg PUBLIC "-//W3C//DTD SVG 1.1//EN" "http://www.w3.org/Graphics/SVG/1.1/DTD/svg11.dtd">
<!-- Creator: CorelDRAW X7 -->
<svg xmlns="http://www.w3.org/2000/svg" xml:space="preserve" width="53.8785mm" height="13.8239mm" version="1.1" style="shape-rendering:geometricPrecision; text-rendering:geometricPrecision; image-rendering:optimizeQuality; fill-rule:evenodd; clip-rule:evenodd"
viewBox="0 0 2150 552"
 xmlns:xlink="http://www.w3.org/1999/xlink">
 <defs>
  <style type="text/css">
   <![CDATA[
    .fil8 {fill:#FBC7AE}
    .fil4 {fill:#DC7777}
    .fil0 {fill:#BDA5BB}
    .fil2 {fill:#87CFC8}
    .fil6 {fill:#8799B8}
    .fil9 {fill:#FBC7AE;fill-rule:nonzero}
    .fil10 {fill:#FCFAFC;fill-rule:nonzero}
    .fil5 {fill:#DC7777;fill-rule:nonzero}
    .fil1 {fill:#BDA5BB;fill-rule:nonzero}
    .fil3 {fill:#87CFC8;fill-rule:nonzero}
    .fil7 {fill:#8799B8;fill-rule:nonzero}
   ]]>
  </style>
 </defs>
 <g id="Layer_x0020_1">
  <metadata id="CorelCorpID_0Corel-Layer"/>
  <g id="_2084403725968">
   <g>
    <path class="fil0" d="M482 496c20,-11 51,-10 71,0l-35 36 -36 -36z"/>
    <g>
     <path class="fil1" d="M436 451c23,-18 52,-28 84,-28 30,0 58,10 81,26l-13 14c-20,-13 -43,-21 -68,-21 -27,0 -51,8 -71,23l-13 -14z"/>
     <path class="fil1" d="M346 361c46,-40 107,-65 174,-65 65,0 125,24 171,63l-13 13c-43,-35 -98,-57 -158,-57 -62,0 -118,22 -161,59 -4,-4 -8,-8 -12,-12l-1 -1z"/>
     <path class="fil1" d="M391 406c35,-29 80,-47 129,-47 48,0 92,17 127,45l-14 13c-31,-24 -70,-39 -113,-39 -44,0 -84,16 -116,41l-13 -13z"/>
    </g>
   </g>
   <g>
    <path class="fil2" d="M1039 496c20,-11 50,-10 70,0l-34 36 -36 -36z"/>
    <g>
     <path class="fil3" d="M992 451c24,-18 53,-28 84,-28 31,0 59,10 82,26l-14 14c-19,-13 -42,-21 -68,-21 -26,0 -50,8 -70,23l-14 -14z"/>
     <path class="fil3" d="M902 361c47,-40 108,-65 174,-65 66,0 126,24 172,63l-13 13c-43,-35 -98,-57 -159,-57 -61,0 -117,22 -160,59 -4,-4 -8,-8 -13,-12l-1 -1z"/>
     <path class="fil3" d="M947 406c35,-29 80,-47 129,-47 48,0 92,17 127,45l-13 13c-31,-24 -71,-39 -114,-39 -44,0 -84,16 -115,41l-14 -13z"/>
    </g>
   </g>
   <g>
    <path class="fil4" d="M1595 496c20,-11 51,-10 71,0l-35 36 -36 -36z"/>
    <g>
     <path class="fil5" d="M1549 451c23,-18 52,-28 84,-28 30,0 59,10 81,26l-13 14c-19,-13 -43,-21 -68,-21 -26,0 -51,8 -70,23l-14 -14z"/>
     <path class="fil5" d="M1459 361c47,-40 107,-65 174,-65 65,0 125,24 172,63l-14 13c-43,-35 -98,-57 -158,-57 -61,0 -117,22 -161,59 -4,-4 -8,-8 -12,-12l-1 -1z"/>
     <path class="fil5" d="M1504 406c35,-29 80,-47 129,-47 48,0 92,17 127,45l-14 13c-31,-24 -70,-39 -113,-39 -44,0 -84,16 -116,41l-13 -13z"/>
    </g>
   </g>
   <g>
    <path class="fil6" d="M835 351c-20,12 -51,11 -71,0l35 -36 36 36z"/>
    <g>
     <path class="fil7" d="M881 397c-23,17 -52,28 -84,28 -30,0 -59,-10 -81,-26l13 -14c19,13 43,21 68,21 26,0 51,-8 70,-23l14 14z"/>
     <path class="fil7" d="M971 487c-47,40 -107,65 -174,65 -65,0 -125,-24 -172,-63l14 -14c43,36 98,58 158,58 61,0 117,-23 161,-60 4,5 8,9 12,13l1 1z"/>
     <path class="fil7" d="M926 442c-35,29 -80,47 -129,47 -48,0 -92,-17 -127,-45l14 -13c31,24 70,39 113,39 44,0 84,-16 116,-41l13 13z"/>
    </g>
   </g>
   <g>
    <path class="fil8" d="M1391 351c-20,12 -50,11 -70,0l34 -36 36 36z"/>
    <g>
     <path class="fil9" d="M1438 397c-24,17 -53,28 -84,28 -31,0 -59,-10 -82,-26l14 -14c19,13 42,21 68,21 26,0 50,-8 70,-23l14 14z"/>
     <path class="fil9" d="M1528 487c-47,40 -108,65 -174,65 -66,0 -126,-24 -172,-63l13 -14c43,36 98,58 159,58 61,0 117,-23 160,-60 4,5 8,9 13,13l1 1z"/>
     <path class="fil9" d="M1483 442c-35,29 -80,47 -129,47 -48,0 -92,-17 -127,-45l13 -13c31,24 71,39 114,39 44,0 84,-16 115,-41l14 13z"/>
    </g>
   </g>
   <path class="fil10" d="M16 234c-3,0 -6,-1 -8,-4 -2,-2 -3,-5 -3,-8l0 -140c0,-4 1,-6 3,-9 2,-2 5,-3 8,-3 4,0 7,1 9,3 2,3 3,5 3,9l0 140c0,3 -1,6 -3,8 -2,3 -5,4 -9,4zm0 -195c-4,0 -8,-2 -11,-5 -3,-3 -5,-7 -5,-12 0,-4 2,-8 5,-11 3,-3 7,-5 11,-5 5,0 9,2 12,5 3,3 5,7 5,11 0,5 -2,9 -5,12 -3,3 -7,5 -12,5zm182 29c14,0 27,3 38,9 12,6 21,15 27,26 6,12 9,26 9,42l0 77c0,4 -1,6 -3,8 -2,3 -5,4 -8,4 -3,0 -6,-1 -8,-4 -2,-2 -4,-4 -4,-8l0 -77c0,-18 -5,-32 -14,-41 -10,-9 -23,-14 -39,-14 -10,0 -19,2 -27,6 -8,4 -14,9 -18,15 -5,7 -7,15 -7,23l0 88c0,4 -1,6 -3,9 -2,2 -5,3 -9,3 -3,0 -6,-1 -8,-3 -2,-3 -3,-5 -3,-9l0 -140c0,-4 1,-6 3,-9 2,-2 5,-3 8,-3 4,0 7,1 9,3 2,3 3,5 3,9l0 10c6,-8 14,-13 24,-17 9,-5 19,-7 30,-7zm232 143c3,0 6,1 7,3 2,2 3,5 3,8 0,4 -1,6 -3,8 -2,3 -5,4 -9,4l-6 0c-11,0 -20,-3 -29,-8 -8,-5 -15,-12 -19,-21 -5,-8 -7,-18 -7,-29l0 -80 -20 0c-3,0 -6,-1 -8,-3 -1,-2 -2,-4 -2,-7 0,-3 1,-5 2,-7 2,-2 5,-3 8,-3l20 0 0 -46c0,-4 1,-7 3,-9 2,-2 5,-3 8,-3 3,0 6,1 8,3 3,2 4,5 4,9l0 46 33 0c4,0 6,1 8,3 2,2 3,4 3,7 0,3 -1,5 -3,7 -2,2 -4,3 -8,3l-33 0 0 80c0,10 3,18 9,25 6,6 13,10 23,10l8 0zm152 -142c15,0 28,3 39,10 11,7 20,16 27,28 6,13 9,26 9,42 0,3 -1,6 -3,8 -2,2 -5,3 -8,3l-121 0c2,16 8,29 19,39 12,10 26,16 42,16 8,0 15,-2 22,-4 7,-3 13,-6 18,-10 2,-2 5,-3 8,-3 2,0 4,1 6,3 3,2 4,5 4,8 0,2 -1,5 -3,7 -7,5 -15,10 -25,14 -10,3 -20,5 -30,5 -16,0 -30,-3 -42,-10 -13,-7 -23,-17 -30,-30 -7,-13 -11,-27 -11,-43 0,-16 4,-31 11,-43 6,-13 15,-23 27,-30 12,-7 26,-10 41,-10zm0 20c-15,0 -28,5 -38,14 -10,10 -16,22 -18,37l109 0c-1,-15 -7,-27 -16,-37 -10,-9 -22,-14 -37,-14zm183 145c-12,0 -22,-5 -29,-15 -8,-9 -12,-22 -12,-37l0 -171c0,-3 1,-6 3,-8 3,-2 5,-3 9,-3 3,0 6,1 8,3 2,2 3,5 3,8l0 171c0,9 2,16 5,21 4,5 8,8 13,8l8 0c3,0 5,1 7,3 2,2 3,5 3,8 0,4 -1,6 -4,9 -2,2 -6,3 -10,3l-4 0zm100 0c-3,0 -6,-1 -8,-4 -2,-2 -3,-5 -3,-8l0 -140c0,-4 1,-6 3,-9 2,-2 5,-3 8,-3 4,0 6,1 8,3 3,3 4,5 4,9l0 140c0,3 -1,6 -4,8 -2,3 -4,4 -8,4zm0 -195c-5,0 -8,-2 -12,-5 -3,-3 -4,-7 -4,-12 0,-4 1,-8 5,-11 3,-3 7,-5 11,-5 5,0 8,2 12,5 3,3 4,7 4,11 0,5 -1,9 -4,12 -4,3 -7,5 -12,5zm119 195c-3,0 -6,-1 -8,-4 -2,-2 -3,-5 -3,-8l0 -210c0,-4 1,-7 3,-9 2,-2 5,-3 8,-3 4,0 6,1 9,3 2,2 3,5 3,9l0 93 146 0 0 -93c0,-4 1,-7 3,-9 3,-2 5,-3 9,-3 3,0 6,1 8,3 2,2 3,5 3,9l0 210c0,3 -1,6 -3,8 -2,3 -5,4 -8,4 -4,0 -6,-1 -9,-4 -2,-2 -3,-5 -3,-8l0 -96 -146 0 0 96c0,3 -1,6 -3,8 -3,3 -5,4 -9,4zm347 1c-16,0 -30,-3 -43,-11 -12,-7 -22,-17 -30,-29 -7,-13 -10,-27 -10,-43 0,-16 3,-30 10,-43 8,-13 18,-23 30,-30 13,-7 27,-10 43,-10 16,0 30,3 42,10 13,7 23,17 30,30 7,13 11,27 11,43 0,16 -4,30 -11,43 -7,12 -17,22 -29,29 -13,8 -27,11 -43,11zm0 -21c11,0 22,-2 31,-8 9,-5 16,-13 22,-22 5,-10 7,-20 7,-32 0,-12 -2,-23 -7,-32 -6,-10 -13,-17 -22,-22 -9,-6 -20,-9 -31,-9 -11,0 -22,3 -31,9 -9,5 -17,12 -22,22 -5,9 -8,20 -8,32 0,12 3,22 8,32 5,9 13,17 22,22 9,6 20,8 31,8zm335 -146c11,0 22,3 31,9 9,5 16,13 21,23 5,11 8,23 8,36l0 86c0,4 -1,6 -3,9 -2,2 -5,3 -9,3 -3,0 -6,-1 -8,-3 -2,-3 -3,-5 -3,-9l0 -86c0,-14 -4,-25 -11,-34 -7,-8 -17,-12 -29,-12 -12,0 -23,4 -30,13 -8,8 -12,19 -12,33l0 0 0 86c0,4 -1,6 -3,9 -2,2 -5,3 -8,3 -3,0 -6,-1 -8,-3 -3,-3 -4,-5 -4,-9l0 -86c0,-14 -3,-25 -11,-34 -7,-8 -16,-12 -28,-12 -13,0 -23,4 -31,12 -8,9 -12,19 -12,32l0 88c0,4 -1,6 -3,9 -2,2 -5,3 -8,3 -3,0 -6,-1 -8,-3 -3,-3 -4,-5 -4,-9l0 -140c0,-4 1,-6 4,-9 2,-2 5,-3 8,-3 3,0 6,1 8,3 2,3 3,5 3,9l0 6c6,-6 12,-11 20,-15 8,-3 16,-5 25,-5 11,0 21,3 30,8 9,5 16,12 21,21 6,-9 13,-16 22,-21 10,-5 20,-8 32,-8zm215 1c14,0 27,3 39,10 11,7 20,16 26,28 7,13 10,26 10,42 0,3 -1,6 -3,8 -2,2 -5,3 -8,3l-121 0c2,16 8,29 19,39 11,10 25,16 42,16 7,0 15,-2 22,-4 7,-3 13,-6 17,-10 3,-2 6,-3 8,-3 3,0 5,1 7,3 3,2 4,5 4,8 0,2 -1,5 -3,7 -7,5 -15,10 -26,14 -10,3 -20,5 -29,5 -16,0 -30,-3 -43,-10 -12,-7 -22,-17 -29,-30 -7,-13 -11,-27 -11,-43 0,-16 4,-31 10,-43 7,-13 16,-23 28,-30 12,-7 25,-10 41,-10zm0 20c-16,0 -28,5 -38,14 -10,10 -16,22 -18,37l109 0c-1,-15 -7,-27 -17,-37 -9,-9 -21,-14 -36,-14zm205 146c-12,0 -24,-2 -36,-6 -11,-4 -20,-10 -27,-18 -2,-2 -3,-4 -3,-7 0,-3 2,-6 5,-9 2,-1 5,-2 7,-2 4,0 6,1 9,4 5,6 11,10 19,13 8,3 16,4 26,4 14,0 24,-2 31,-7 7,-5 11,-11 11,-19 0,-7 -3,-13 -10,-18 -7,-5 -18,-8 -33,-10 -20,-4 -35,-9 -44,-17 -10,-8 -15,-18 -15,-29 0,-14 6,-26 17,-33 11,-8 25,-12 42,-12 14,0 25,2 35,6 10,5 18,11 24,19 1,3 2,5 2,7 0,3 -2,6 -5,8 -1,1 -3,1 -6,1 -4,0 -7,-1 -10,-4 -10,-11 -23,-17 -40,-17 -11,0 -20,2 -26,7 -7,4 -10,10 -10,17 0,7 3,13 9,17 6,4 17,8 33,10 21,4 36,10 46,18 9,8 13,18 13,30 0,9 -2,17 -8,24 -5,8 -13,13 -23,17 -10,4 -21,6 -33,6z"/>
  </g>
 </g>
</svg>
