<?xml version="1.0" encoding="UTF-8"?>
<!DOCTYPE svg PUBLIC "-//W3C//DTD SVG 1.1//EN" "http://www.w3.org/Graphics/SVG/1.1/DTD/svg11.dtd">
<!-- Creator: CorelDRAW X7 -->
<svg xmlns="http://www.w3.org/2000/svg" xml:space="preserve" width="23.2868mm" height="23.2266mm" version="1.1" style="shape-rendering:geometricPrecision; text-rendering:geometricPrecision; image-rendering:optimizeQuality; fill-rule:evenodd; clip-rule:evenodd"
viewBox="0 0 908 906"
 xmlns:xlink="http://www.w3.org/1999/xlink">
 <defs>
  <style type="text/css">
   <![CDATA[
    .fil0 {fill:#DC7777}
    .fil1 {fill:#FCFAFC;fill-rule:nonzero}
   ]]>
  </style>
 </defs>
 <g id="Layer_x0020_1">
  <metadata id="CorelCorpID_0Corel-Layer"/>
  <g id="_2084385871760">
   <circle class="fil0" cx="432" cy="198" r="198"/>
   <path class="fil1" d="M0 570l62 0 0 50 2 0c4,-8 9,-16 16,-23 7,-7 15,-14 23,-19 9,-5 18,-9 28,-12 10,-3 20,-4 31,-4 10,0 19,1 27,4l-3 67c-5,-1 -10,-3 -15,-4 -5,0 -10,-1 -15,-1 -30,0 -54,9 -70,26 -16,17 -24,43 -24,79l0 164 -62 0 0 -327zm486 137c0,-14 -3,-27 -6,-38 -4,-12 -10,-22 -18,-30 -8,-9 -18,-15 -29,-20 -12,-5 -26,-7 -41,-7 -16,0 -30,2 -42,8 -13,6 -24,13 -32,23 -9,9 -16,19 -21,30 -5,12 -7,23 -7,34l196 0zm-196 50c0,14 3,27 9,39 7,11 15,21 25,30 10,8 22,14 35,19 13,5 27,7 41,7 20,0 37,-5 51,-14 14,-9 27,-20 39,-35l47 36c-34,44 -83,67 -145,67 -26,0 -49,-5 -70,-13 -21,-9 -39,-21 -53,-37 -15,-15 -26,-33 -34,-54 -7,-21 -11,-44 -11,-68 0,-25 4,-47 12,-68 9,-21 21,-39 36,-55 15,-15 33,-27 53,-36 21,-9 44,-13 68,-13 29,0 53,5 73,15 20,10 37,23 50,40 13,16 22,34 28,55 6,20 8,41 8,62l0 23 -262 0zm571 -100c-11,-12 -24,-21 -36,-27 -13,-6 -28,-10 -45,-10 -17,0 -32,4 -45,10 -13,6 -23,15 -32,25 -8,11 -15,24 -19,38 -4,14 -7,28 -7,43 0,16 3,30 8,44 5,13 12,25 21,35 10,10 21,18 34,24 12,6 27,9 43,9 18,0 32,-3 45,-10 12,-6 24,-15 34,-27l45 44c-16,18 -35,31 -57,39 -21,8 -44,12 -68,12 -25,0 -48,-4 -69,-13 -21,-8 -39,-20 -54,-35 -15,-15 -27,-33 -35,-53 -9,-21 -13,-45 -13,-70 0,-25 4,-48 13,-70 8,-21 19,-39 34,-54 15,-15 33,-27 54,-36 21,-8 45,-13 70,-13 24,0 47,5 69,13 22,9 41,22 57,39l-47 43z"/>
  </g>
 </g>
</svg>
