<?xml version="1.0" encoding="UTF-8"?>
<!DOCTYPE svg PUBLIC "-//W3C//DTD SVG 1.1//EN" "http://www.w3.org/Graphics/SVG/1.1/DTD/svg11.dtd">
<!-- Creator: CorelDRAW X7 -->
<svg xmlns="http://www.w3.org/2000/svg" xml:space="preserve" width="25.8706mm" height="31.4592mm" version="1.1" style="shape-rendering:geometricPrecision; text-rendering:geometricPrecision; image-rendering:optimizeQuality; fill-rule:evenodd; clip-rule:evenodd"
viewBox="0 0 349 424"
 xmlns:xlink="http://www.w3.org/1999/xlink">
 <defs>
  <style type="text/css">
   <![CDATA[
    .fil0 {fill:#DC7777}
   ]]>
  </style>
 </defs>
 <g id="Layer_x0020_1">
  <metadata id="CorelCorpID_0Corel-Layer"/>
  <path class="fil0" d="M179 1c-2,-1 -3,-1 -4,-1l-1 0 0 0c-1,0 -3,0 -4,1 -55,25 -110,49 -166,74 -2,0 -4,3 -4,5 0,1 0,1 0,1 0,38 0,76 0,113 0,13 2,25 3,37 7,39 22,76 46,108 30,40 68,69 117,84 5,2 11,2 17,0 48,-15 87,-44 117,-84 24,-32 39,-69 45,-108 2,-12 3,-24 3,-37 1,-37 0,-75 1,-113 0,0 0,0 0,-1 0,-2 -2,-5 -4,-5 -56,-25 -111,-49 -166,-74zm-123 224c5,27 15,53 32,74 20,28 48,49 81,59 2,0 3,0 5,0l0 -146 120 0c0,-5 1,-9 1,-14 0,-11 0,-22 0,-34 0,-14 0,-28 0,-42 0,0 0,-1 0,-1 0,-2 -2,-3 -3,-4l0 0c-39,-17 -77,-34 -115,-51 -1,0 -2,0 -3,0l0 146 -119 0c0,4 1,9 1,13zm118 -13l0 0 0 0 0 0zm7 175c-2,1 -4,1 -7,1l0 0c-2,0 -4,0 -6,-1 -40,-12 -74,-36 -98,-70 -20,-26 -33,-57 -38,-89 -1,-10 -2,-20 -2,-30 0,0 0,0 0,-1 0,-31 0,-62 0,-94 0,0 0,0 0,0 0,-2 2,-4 4,-5 45,-20 91,-41 137,-61 2,-1 5,-1 7,0 46,20 91,41 137,61 2,1 4,3 4,5 0,0 0,0 0,0 0,32 0,63 0,94 0,1 0,1 0,1 0,10 -1,20 -2,30 -6,32 -19,63 -38,89 -24,34 -59,58 -98,70z"/>
 </g>
</svg>
