<?xml version="1.0" encoding="UTF-8"?>
<!DOCTYPE svg PUBLIC "-//W3C//DTD SVG 1.1//EN" "http://www.w3.org/Graphics/SVG/1.1/DTD/svg11.dtd">
<!-- Creator: CorelDRAW X7 -->
<svg xmlns="http://www.w3.org/2000/svg" xml:space="preserve" width="23.1153mm" height="23.1024mm" version="1.1" style="shape-rendering:geometricPrecision; text-rendering:geometricPrecision; image-rendering:optimizeQuality; fill-rule:evenodd; clip-rule:evenodd"
viewBox="0 0 1298 1297"
 xmlns:xlink="http://www.w3.org/1999/xlink">
 <defs>
  <style type="text/css">
   <![CDATA[
    .fil0 {fill:#BDA5BB;fill-rule:nonzero}
   ]]>
  </style>
 </defs>
 <g id="Layer_x0020_1">
  <metadata id="CorelCorpID_0Corel-Layer"/>
  <path class="fil0" d="M648 1037c-24,0 -43,19 -43,43 0,0 0,0 0,1l0 172c0,1 0,1 0,1 0,24 20,43 44,43 24,0 43,-19 43,-43 0,0 0,0 0,-1l0 -172c0,-1 0,-1 0,-1 0,-24 -19,-43 -43,-43 -1,0 -1,0 -1,0zm-305 -127c-12,1 -22,5 -30,13l-123 123c-8,8 -13,19 -13,31 0,24 19,43 43,43 12,0 23,-5 32,-13l122 -123c8,-8 13,-19 13,-31 0,-23 -19,-43 -43,-43 -1,0 -1,0 -1,0l0 0zm612 0c12,1 22,5 30,13l123 123c8,8 13,19 13,31 0,24 -20,43 -43,43 -12,0 -23,-5 -32,-13l-122 -123c-8,-8 -13,-19 -13,-31 0,-23 19,-43 43,-43 1,0 1,0 1,0l0 0zm-911 -305c0,0 -1,0 -1,0 -24,0 -43,20 -43,44 0,23 19,43 43,43 0,0 1,0 1,0l173 0c0,0 0,0 0,0 24,0 43,-20 43,-43 0,-24 -19,-44 -43,-44 0,0 0,0 0,0l-173 0zm1210 0c0,0 1,0 1,0 24,0 43,20 43,44 0,23 -19,43 -43,43 0,0 -1,0 -1,0l-173 0c0,0 0,0 0,0 -24,0 -43,-20 -43,-43 0,-24 19,-44 43,-44 0,0 0,0 0,0l173 0zm-605 -216c143,0 259,116 259,260 0,143 -116,259 -259,259 -144,0 -260,-116 -260,-259 0,-144 116,-260 260,-260zm0 -86c-191,0 -346,155 -346,346 0,190 155,345 346,345 190,0 345,-155 345,-345 0,-191 -155,-346 -345,-346zm-428 -126c-24,0 -44,20 -44,44 0,11 5,22 13,30l123 123c8,8 19,13 31,13 24,0 43,-19 43,-43 0,-12 -5,-23 -13,-31l-122 -123c-9,-8 -20,-13 -31,-13 0,0 0,0 0,0l0 0zm856 0c24,0 44,20 44,44 0,11 -5,22 -13,30l-123 123c-8,8 -19,13 -31,13 -24,0 -43,-19 -43,-43 0,-12 5,-23 13,-31l122 -123c9,-8 20,-13 31,-13 0,0 0,0 0,0l0 0zm-429 -177c-24,0 -43,20 -43,43 0,0 0,1 0,1l0 173c0,0 0,0 0,0 0,24 20,43 44,43 24,0 43,-19 43,-43 0,0 0,0 0,0l0 -173c0,0 0,-1 0,-1 0,-24 -19,-43 -43,-43 -1,0 -1,0 -1,0l0 0z"/>
 </g>
</svg>
