<svg xmlns="http://www.w3.org/2000/svg" viewBox="0 0 282.42 272.16"><defs><style>.cls-1{fill:#bba3ba;}.cls-2{isolation:isolate;}.cls-3{fill:none;}</style></defs><title>Asset 1</title><g id="Layer_2" data-name="Layer 2"><g id="Layer_1-2" data-name="Layer 1"><g id="Layer_2-2" data-name="Layer 2"><g id="Layer_1-2-2" data-name="Layer 1-2"><path class="cls-1" d="M92.93,240.06V183.53a11,11,0,0,0-22,0h0v56.53a17.56,17.56,0,1,0,24.69,2.69A18,18,0,0,0,92.93,240.06ZM77.56,220.32H82v-4.39H77.56v-8.78H82v-4.39H77.56V194H82v-4.33H77.56v-6.08a4.39,4.39,0,0,1,8.78,0v40.58H77.56Z"/><g class="cls-2"><path class="cls-1" d="M193.21,45.09v9.33H159.38a25.07,25.07,0,0,1,3.3-10q2.74-4.74,10.85-12.57,6.53-6.33,8-8.59a11.32,11.32,0,0,0,2-6.15,7.19,7.19,0,0,0-1.73-5.17,7.14,7.14,0,0,0-9.6.09q-1.78,1.89-2.06,6.3l-9.62-1c.58-5.53,2.37-9.5,5.4-11.91a17.59,17.59,0,0,1,11.33-3.61Q184.7,1.77,189,6a14,14,0,0,1,4.26,10.41A18.87,18.87,0,0,1,192,23.11a27.64,27.64,0,0,1-3.87,6.7,62.73,62.73,0,0,1-6.31,6.69q-4.58,4.36-5.79,5.8a17.62,17.62,0,0,0-2,2.79Z"/><path class="cls-1" d="M232.32,45.09v9.33H198.5a24.9,24.9,0,0,1,3.29-10q2.75-4.74,10.85-12.57,6.53-6.33,8-8.59a11.34,11.34,0,0,0,2-6.15,7.15,7.15,0,0,0-1.74-5.17,7.14,7.14,0,0,0-9.6.09c-1.19,1.26-1.87,3.36-2.06,6.3l-9.61-1Q200.49,9,205,5.38a17.59,17.59,0,0,1,11.33-3.61q7.46,0,11.71,4.18a14,14,0,0,1,4.26,10.41,18.87,18.87,0,0,1-1.22,6.75,27.58,27.58,0,0,1-3.86,6.7,64.18,64.18,0,0,1-6.32,6.69q-4.56,4.36-5.79,5.8a16.9,16.9,0,0,0-2,2.79Z"/></g><g class="cls-2"><path class="cls-1" d="M161.45,68l3.93-.62a3,3,0,0,0,1,1.77,3.32,3.32,0,0,0,2.14.61,3.81,3.81,0,0,0,2.29-.57,1.3,1.3,0,0,0,.52-1.07,1.09,1.09,0,0,0-.28-.75,3.08,3.08,0,0,0-1.31-.53c-3.16-.71-5.17-1.36-6-2a3.9,3.9,0,0,1-1.76-3.4,4.22,4.22,0,0,1,1.52-3.29,7,7,0,0,1,4.71-1.34,8,8,0,0,1,4.52,1,5.23,5.23,0,0,1,2,3l-3.7.7a2.33,2.33,0,0,0-.9-1.35,3.26,3.26,0,0,0-1.89-.47,4.19,4.19,0,0,0-2.21.44,1,1,0,0,0-.45.81.89.89,0,0,0,.39.73,14.54,14.54,0,0,0,3.66,1.12,10.88,10.88,0,0,1,4.37,1.78,3.72,3.72,0,0,1,1.23,3,4.59,4.59,0,0,1-1.7,3.57,7.44,7.44,0,0,1-5,1.5,8.07,8.07,0,0,1-4.78-1.26A5.71,5.71,0,0,1,161.45,68Z"/><path class="cls-1" d="M188.45,72.25V70a5.77,5.77,0,0,1-2.13,1.91,5.88,5.88,0,0,1-2.78.7,5.4,5.4,0,0,1-2.67-.67,3.92,3.92,0,0,1-1.72-1.88,8.6,8.6,0,0,1-.53-3.34V57.15h3.92v6.94a20.3,20.3,0,0,0,.21,3.91,2.19,2.19,0,0,0,.79,1.13,2.39,2.39,0,0,0,1.45.42,3,3,0,0,0,1.8-.56,2.87,2.87,0,0,0,1.09-1.39,16.93,16.93,0,0,0,.29-4.08V57.15h3.92v15.1Z"/><path class="cls-1" d="M209.61,72.25h-3.92v-7.7a12.1,12.1,0,0,0-.25-3.17,2.24,2.24,0,0,0-.82-1.12,2.29,2.29,0,0,0-1.35-.39,3.1,3.1,0,0,0-1.83.57,2.83,2.83,0,0,0-1.11,1.5,13.33,13.33,0,0,0-.3,3.47v6.84h-3.91V57.15h3.63v2.22A6,6,0,0,1,207,57.28a4,4,0,0,1,1.63,1.22,4.44,4.44,0,0,1,.76,1.68,12.26,12.26,0,0,1,.22,2.69Z"/><path class="cls-1" d="M227.05,72.25h-3.92v-7.7a12.1,12.1,0,0,0-.25-3.17,2.24,2.24,0,0,0-.82-1.12,2.32,2.32,0,0,0-1.36-.39,3.1,3.1,0,0,0-1.82.57,2.83,2.83,0,0,0-1.11,1.5,13.33,13.33,0,0,0-.3,3.47v6.84h-3.92V57.15h3.64v2.22a6,6,0,0,1,7.25-2.09,3.94,3.94,0,0,1,1.62,1.22,4.31,4.31,0,0,1,.77,1.68,12.91,12.91,0,0,1,.22,2.69Z"/><path class="cls-1" d="M229.17,57.15h4.16l3.54,10.72,3.46-10.72h4.06l-5.23,14.54-.93,2.63a11.51,11.51,0,0,1-1,2,4.46,4.46,0,0,1-1.07,1.13,4.55,4.55,0,0,1-1.49.67,7.65,7.65,0,0,1-2,.25,10.35,10.35,0,0,1-2.22-.25L230.11,75a8.12,8.12,0,0,0,1.66.19,2.41,2.41,0,0,0,2-.82,5.77,5.77,0,0,0,1-2.08Z"/></g><g class="cls-2"><path class="cls-1" d="M282,30.3l-8.39,1.5a6.05,6.05,0,0,0-1.93-3.75,5.85,5.85,0,0,0-3.89-1.26A6.41,6.41,0,0,0,262.71,29q-1.89,2.17-1.89,7.28,0,5.67,1.92,8a6.36,6.36,0,0,0,5.17,2.34,5.77,5.77,0,0,0,4-1.37,8.2,8.2,0,0,0,2.18-4.69l8.36,1.41a14.64,14.64,0,0,1-5,8.61q-3.69,2.89-9.9,2.9-7.06,0-11.26-4.4t-4.19-12.21q0-7.89,4.21-12.29t11.39-4.39c3.92,0,7,.84,9.34,2.5A13.85,13.85,0,0,1,282,30.3Z"/></g><path class="cls-1" d="M99.68,98.74c6.34-6.3,11-16.41,11-25.43,0-10.33-1.87-15.85-7-23.6C97.75,40.65,85.29,33.55,74,33.55c-7.87,0-10.82.57-17.66,3.5a40.35,40.35,0,0,0-10.82,7.53C39.33,50.8,34.24,60.48,34.24,70c0,7,.54,12,3.65,18.27A38.73,38.73,0,0,0,56,106.38C70.26,113.51,88.21,110.16,99.68,98.74Zm-53-14.62a27.15,27.15,0,0,1-2.71-11c0-8.92,2.3-15.43,8.35-21.48,8.55-8.55,22-10.87,32.35-5.71,9.29,4.65,16.39,14,16.39,24.63,0,5.17-.42,9-2.63,13.43A28.78,28.78,0,0,1,85,97.53C71.47,104.31,54.16,99,46.64,84.12Z"/><path class="cls-1" d="M67.63,4.75V24.12c0,6.34,9.69,6.34,9.69,0V4.75C77.32-1.58,67.63-1.58,67.63,4.75Z"/><path class="cls-1" d="M77.32,138.82V119.45c0-6.33-9.69-6.33-9.69,0v19.37C67.63,145.17,77.32,145.17,77.32,138.82Z"/><path class="cls-1" d="M139.51,67H120.14a4.85,4.85,0,0,0,0,9.69h19.37C145.85,76.65,145.85,67,139.51,67Z"/><path class="cls-1" d="M5.44,76.65H24.81c6.34,0,6.34-9.7,0-9.7H5.44a4.86,4.86,0,0,0,0,9.7Z"/><path class="cls-1" d="M124.73,24.65a5,5,0,0,0-4.85-5.11c-2.62,0-4.13,2.22-5.54,3.63l-9.18,9.18c-1.31,1.32-3.88,3.2-3.88,5.55a5,5,0,0,0,4.9,5.09h.19c2.32,0,4.13-2.47,5.42-3.75L121,30.05C122.26,28.76,124.73,27,124.73,24.65Z"/><path class="cls-1" d="M38.57,43a5,5,0,0,0,5.1-4.9v-.2c0-2.31-2.47-4.12-3.76-5.41L30.74,23.3c-1.29-1.29-3.1-3.76-5.42-3.76a5,5,0,0,0-5.1,4.89v.21c0,2.32,2.47,4.13,3.76,5.42l9.18,9.17C34.45,40.51,36.26,43,38.57,43Z"/><path class="cls-1" d="M20.22,119.2a5,5,0,0,0,4.85,4.85c2.62,0,4.13-2.22,5.54-3.64l9.3-9.3c1.64-1.64,6-5,2.42-8.92a6.08,6.08,0,0,0-3.25-1.54c-2.91,0-4.15,2-5.67,3.5L24,113.52C22.55,115,20.22,116.55,20.22,119.2Z"/><path class="cls-1" d="M102.87,101.94a6.17,6.17,0,0,0-1.59,3.23c0,2.92,2,4.17,3.5,5.68l9.43,9.43c1.44,1.43,3,3.76,5.67,3.76a4.93,4.93,0,0,0,4.85-4.85c0-2.62-2.22-4.13-3.64-5.54l-9.3-9.3C110.15,102.71,106.8,98.37,102.87,101.94Z"/><path class="cls-1" d="M252.48,2.71a7.44,7.44,0,1,0,7.44,7.44h0A7.44,7.44,0,0,0,252.48,2.71Zm0,11a2.57,2.57,0,1,1,.05,0h-.05Z"/><g class="cls-2"><path class="cls-1" d="M161,111.31l3.16-.5a2.48,2.48,0,0,0,.82,1.46,2.7,2.7,0,0,0,1.73.49,3,3,0,0,0,1.84-.46,1.08,1.08,0,0,0,.41-.88.87.87,0,0,0-.22-.62,2.41,2.41,0,0,0-1.06-.43,16.8,16.8,0,0,1-4.83-1.6,3.24,3.24,0,0,1-1.41-2.8,3.5,3.5,0,0,1,1.22-2.71,5.55,5.55,0,0,1,3.79-1.09A6.32,6.32,0,0,1,170,103a4.21,4.21,0,0,1,1.64,2.45l-3,.57a2,2,0,0,0-.72-1.11,2.57,2.57,0,0,0-1.52-.38,3.36,3.36,0,0,0-1.79.36.78.78,0,0,0-.36.66.73.73,0,0,0,.32.6,11,11,0,0,0,2.94.92,8.75,8.75,0,0,1,3.52,1.46,3.11,3.11,0,0,1,1,2.45,3.83,3.83,0,0,1-1.37,2.93,5.89,5.89,0,0,1-4.05,1.23,6.5,6.5,0,0,1-3.86-1A4.77,4.77,0,0,1,161,111.31Z"/><path class="cls-1" d="M177.2,106.23l-2.86-.54A4.63,4.63,0,0,1,176,103a5.87,5.87,0,0,1,3.5-.86,7.21,7.21,0,0,1,3.14.52,3.09,3.09,0,0,1,1.45,1.32,7,7,0,0,1,.42,2.93l0,3.84a14,14,0,0,0,.15,2.41,7.19,7.19,0,0,0,.57,1.67h-3.12c-.08-.22-.18-.55-.3-1-.06-.2-.09-.33-.11-.39a5.8,5.8,0,0,1-1.73,1.23,4.86,4.86,0,0,1-2,.41,4,4,0,0,1-2.89-1,3.53,3.53,0,0,1-1.06-2.63,3.68,3.68,0,0,1,.48-1.88,3.16,3.16,0,0,1,1.35-1.26,10.32,10.32,0,0,1,2.51-.77,16.1,16.1,0,0,0,3.06-.8v-.33a1.74,1.74,0,0,0-.45-1.35,2.59,2.59,0,0,0-1.69-.4A2.2,2.2,0,0,0,178,105,2.43,2.43,0,0,0,177.2,106.23Zm4.22,2.67c-.41.14-1,.3-1.92.5a5.42,5.42,0,0,0-1.72.57,1.38,1.38,0,0,0-.61,1.16,1.64,1.64,0,0,0,.49,1.19,1.71,1.71,0,0,0,1.26.5,2.62,2.62,0,0,0,1.62-.58,2,2,0,0,0,.75-1.09,6.22,6.22,0,0,0,.13-1.6Z"/><path class="cls-1" d="M193.08,102.45v2.61h-2.15v5a13.15,13.15,0,0,0,.06,1.77.75.75,0,0,0,.28.42.89.89,0,0,0,.54.16,3.86,3.86,0,0,0,1.26-.31l.27,2.54a6,6,0,0,1-2.49.5,3.73,3.73,0,0,1-1.53-.3,2.28,2.28,0,0,1-1-.77,3.21,3.21,0,0,1-.44-1.28,16.29,16.29,0,0,1-.1-2.32v-5.41h-1.45v-2.61h1.45V100l3.16-1.92v4.39Z"/><path class="cls-1" d="M203.11,114.86V113a4.59,4.59,0,0,1-1.71,1.56,4.64,4.64,0,0,1-2.24.58,4.3,4.3,0,0,1-2.15-.55,3.2,3.2,0,0,1-1.38-1.55,7.17,7.17,0,0,1-.43-2.74v-7.85h3.16v5.7a16.36,16.36,0,0,0,.17,3.21,1.81,1.81,0,0,0,.63.93,1.91,1.91,0,0,0,1.17.34,2.41,2.41,0,0,0,1.45-.46,2.3,2.3,0,0,0,.87-1.14,13.61,13.61,0,0,0,.24-3.35v-5.23H206v12.41Z"/><path class="cls-1" d="M212.32,114.86h-3.15V102.45h2.93v1.76a5.35,5.35,0,0,1,1.35-1.65,2.43,2.43,0,0,1,1.36-.39,3.92,3.92,0,0,1,2.08.61l-1,2.87a2.67,2.67,0,0,0-1.48-.54,1.73,1.73,0,0,0-1.12.38,2.55,2.55,0,0,0-.72,1.37,19.89,19.89,0,0,0-.27,4.16Z"/><path class="cls-1" d="M229.17,114.86h-2.93V113a4.8,4.8,0,0,1-1.72,1.59,4.35,4.35,0,0,1-2,.52,4.48,4.48,0,0,1-3.52-1.73,7.24,7.24,0,0,1-1.46-4.81,7.1,7.1,0,0,1,1.42-4.79,4.54,4.54,0,0,1,3.6-1.64A4.38,4.38,0,0,1,226,103.9V97.73h3.15Zm-8.41-6.48a5.81,5.81,0,0,0,.53,2.88,2.35,2.35,0,0,0,2.13,1.28,2.3,2.3,0,0,0,1.85-1,4.6,4.6,0,0,0,.76-2.88,5,5,0,0,0-.74-3.08,2.32,2.32,0,0,0-1.9-.94,2.35,2.35,0,0,0-1.88.93A4.34,4.34,0,0,0,220.76,108.38Z"/><path class="cls-1" d="M234.63,106.23l-2.86-.54a4.68,4.68,0,0,1,1.66-2.66,5.87,5.87,0,0,1,3.5-.86,7.21,7.21,0,0,1,3.14.52,3.12,3.12,0,0,1,1.46,1.32,7,7,0,0,1,.42,2.93l0,3.84a14,14,0,0,0,.15,2.41,7.69,7.69,0,0,0,.57,1.67h-3.12c-.08-.22-.18-.55-.3-1-.05-.2-.09-.33-.11-.39a5.8,5.8,0,0,1-1.73,1.23,4.81,4.81,0,0,1-2,.41,4,4,0,0,1-2.9-1,3.53,3.53,0,0,1-1.06-2.63,3.68,3.68,0,0,1,.48-1.88,3.16,3.16,0,0,1,1.35-1.26,10.47,10.47,0,0,1,2.51-.77,16.1,16.1,0,0,0,3.06-.8v-.33a1.74,1.74,0,0,0-.45-1.35,2.59,2.59,0,0,0-1.69-.4,2.17,2.17,0,0,0-1.31.34A2.44,2.44,0,0,0,234.63,106.23Zm4.22,2.67c-.4.14-1,.3-1.92.5a5.43,5.43,0,0,0-1.71.57,1.36,1.36,0,0,0-.62,1.16,1.64,1.64,0,0,0,.49,1.19,1.71,1.71,0,0,0,1.26.5,2.67,2.67,0,0,0,1.63-.58,2.08,2.08,0,0,0,.75-1.09,6.9,6.9,0,0,0,.12-1.6Z"/><path class="cls-1" d="M243.56,102.45h3.36l2.85,8.81,2.78-8.81h3.26l-4.21,11.94-.75,2.16a8.68,8.68,0,0,1-.79,1.66,3.3,3.3,0,0,1-2.06,1.48,6.11,6.11,0,0,1-1.61.2,8.09,8.09,0,0,1-1.78-.2l-.29-2.57a6.86,6.86,0,0,0,1.34.15,2,2,0,0,0,1.63-.67,4.68,4.68,0,0,0,.8-1.71Z"/></g><g class="cls-2"><path class="cls-1" d="M170,139.09v2.52h-9.13a6.77,6.77,0,0,1,.89-2.71,18.08,18.08,0,0,1,2.93-3.39,19.27,19.27,0,0,0,2.16-2.32,3.12,3.12,0,0,0,.53-1.66,1.93,1.93,0,0,0-.46-1.39,1.72,1.72,0,0,0-1.3-.49,1.69,1.69,0,0,0-1.29.51,2.71,2.71,0,0,0-.56,1.7l-2.59-.27a4.5,4.5,0,0,1,1.45-3.21,4.77,4.77,0,0,1,3.06-1,4.33,4.33,0,0,1,3.16,1.13,3.8,3.8,0,0,1,1.15,2.81,5.06,5.06,0,0,1-.33,1.82,7.5,7.5,0,0,1-1.05,1.81,16,16,0,0,1-1.7,1.8q-1.23,1.18-1.56,1.56a4.21,4.21,0,0,0-.53.76Z"/><path class="cls-1" d="M176.18,127.4a3.65,3.65,0,0,1,3.08,1.47q1.32,1.74,1.32,5.76t-1.33,5.77a3.65,3.65,0,0,1-3.07,1.45,3.83,3.83,0,0,1-3.2-1.59c-.81-1.06-1.21-2.94-1.21-5.66s.44-4.58,1.33-5.75A3.63,3.63,0,0,1,176.18,127.4Zm0,2.25a1.33,1.33,0,0,0-.85.31,2.17,2.17,0,0,0-.57,1.13,23.89,23.89,0,0,0,0,7,2.41,2.41,0,0,0,.61,1.24,1.23,1.23,0,0,0,.84.31,1.28,1.28,0,0,0,.84-.32,2,2,0,0,0,.57-1.12,15.86,15.86,0,0,0,.27-3.53,16.06,16.06,0,0,0-.24-3.42A2.45,2.45,0,0,0,177,130,1.27,1.27,0,0,0,176.18,129.65Z"/><path class="cls-1" d="M181.49,141.85l3.36-14.63h2l-3.4,14.63Z"/><path class="cls-1" d="M192,127.4a3.65,3.65,0,0,1,3.08,1.47q1.32,1.74,1.32,5.76t-1.33,5.77a3.65,3.65,0,0,1-3.07,1.45,3.83,3.83,0,0,1-3.2-1.59c-.81-1.06-1.21-2.94-1.21-5.66s.44-4.58,1.33-5.75A3.64,3.64,0,0,1,192,127.4Zm0,2.25a1.33,1.33,0,0,0-.85.31,2.17,2.17,0,0,0-.57,1.13,23.89,23.89,0,0,0,0,7,2.41,2.41,0,0,0,.61,1.24,1.23,1.23,0,0,0,.84.31,1.28,1.28,0,0,0,.84-.32,2,2,0,0,0,.57-1.12,15.86,15.86,0,0,0,.27-3.53,16.06,16.06,0,0,0-.24-3.42,2.45,2.45,0,0,0-.61-1.25A1.27,1.27,0,0,0,192,129.65Z"/><path class="cls-1" d="M203.25,141.61v-2.85h-5.56v-2.37l5.89-9h2.19v9h1.69v2.38h-1.69v2.85Zm0-5.23v-4.84l-3.12,4.84Z"/><path class="cls-1" d="M207.86,141.85l3.36-14.63h2l-3.4,14.63Z"/><path class="cls-1" d="M222.76,139.09v2.52h-9.13a6.77,6.77,0,0,1,.89-2.71,18.08,18.08,0,0,1,2.93-3.39,19.27,19.27,0,0,0,2.16-2.32,3.12,3.12,0,0,0,.53-1.66,1.93,1.93,0,0,0-.46-1.39,1.93,1.93,0,0,0-2.59,0,2.71,2.71,0,0,0-.56,1.7l-2.59-.27a4.5,4.5,0,0,1,1.45-3.21,4.77,4.77,0,0,1,3.06-1,4.33,4.33,0,0,1,3.16,1.13,3.8,3.8,0,0,1,1.15,2.81,5.06,5.06,0,0,1-.33,1.82,7.78,7.78,0,0,1-1,1.81,17.36,17.36,0,0,1-1.71,1.8q-1.23,1.18-1.56,1.56a4.21,4.21,0,0,0-.53.76Z"/><path class="cls-1" d="M228.92,127.4a3.65,3.65,0,0,1,3.08,1.47q1.32,1.74,1.32,5.76T232,140.4a3.65,3.65,0,0,1-3.07,1.45,3.83,3.83,0,0,1-3.2-1.59c-.81-1.06-1.21-2.94-1.21-5.66s.44-4.58,1.33-5.75A3.64,3.64,0,0,1,228.92,127.4Zm0,2.25a1.33,1.33,0,0,0-.85.31,2.17,2.17,0,0,0-.57,1.13,23.89,23.89,0,0,0,0,7,2.41,2.41,0,0,0,.61,1.24,1.23,1.23,0,0,0,.84.31,1.28,1.28,0,0,0,.84-.32,2,2,0,0,0,.57-1.12,15.86,15.86,0,0,0,.27-3.53,16.06,16.06,0,0,0-.24-3.42,2.45,2.45,0,0,0-.61-1.25A1.27,1.27,0,0,0,228.92,129.65Z"/><path class="cls-1" d="M241.73,141.61h-2.61V131.39a8.91,8.91,0,0,1-3.36,2.05V131a7.42,7.42,0,0,0,2.21-1.31,5,5,0,0,0,1.64-2.27h2.12Z"/><path class="cls-1" d="M247.85,134a3.06,3.06,0,0,1-1.47-1.22,3.24,3.24,0,0,1-.46-1.7,3.49,3.49,0,0,1,1.06-2.61,4.88,4.88,0,0,1,6,0,3.42,3.42,0,0,1,1.07,2.61,3.14,3.14,0,0,1-.49,1.75A3.17,3.17,0,0,1,252.2,134a3.68,3.68,0,0,1,1.72,1.38,3.82,3.82,0,0,1,.59,2.1,4.36,4.36,0,0,1-1.2,3.18,4.25,4.25,0,0,1-3.19,1.23,4.68,4.68,0,0,1-3.09-1,4,4,0,0,1-1.45-3.28,4.15,4.15,0,0,1,.55-2.11A3.52,3.52,0,0,1,247.85,134Zm.29,3.33a2.55,2.55,0,0,0,.56,1.75,1.79,1.79,0,0,0,2.71,0,2.57,2.57,0,0,0,.52-1.74,2.37,2.37,0,0,0-.53-1.6,1.76,1.76,0,0,0-1.36-.6,1.61,1.61,0,0,0-1.43.69A2.57,2.57,0,0,0,248.14,137.3Zm.25-6.06a1.74,1.74,0,0,0,.44,1.27,1.74,1.74,0,0,0,2.35,0,2,2,0,0,0,0-2.49,1.57,1.57,0,0,0-1.16-.46,1.6,1.6,0,0,0-1.2.47A1.66,1.66,0,0,0,248.39,131.24Z"/></g><g class="cls-2"><g class="cls-2"><path class="cls-1" d="M13.28,231.81l-1.13.21a.89.89,0,0,0-.26-.53.77.77,0,0,0-.53-.18.83.83,0,0,0-.68.31,1.62,1.62,0,0,0-.25,1,1.91,1.91,0,0,0,.25,1.13.86.86,0,0,0,.7.33.73.73,0,0,0,.53-.19,1.2,1.2,0,0,0,.3-.66l1.12.2a2.11,2.11,0,0,1-.67,1.22,2.05,2.05,0,0,1-1.33.41,1.94,1.94,0,0,1-1.52-.63,2.45,2.45,0,0,1-.56-1.73A2.54,2.54,0,0,1,9.81,231a2,2,0,0,1,1.54-.62,2,2,0,0,1,1.25.36A1.91,1.91,0,0,1,13.28,231.81Z"/><path class="cls-1" d="M13.88,232.67a2.54,2.54,0,0,1,.28-1.16,2,2,0,0,1,.8-.85,2.34,2.34,0,0,1,1.15-.29,2.09,2.09,0,0,1,1.61.67,2.55,2.55,0,0,1,0,3.37,2.09,2.09,0,0,1-1.59.68,2.53,2.53,0,0,1-1.14-.28,1.88,1.88,0,0,1-.82-.83A2.79,2.79,0,0,1,13.88,232.67Zm1.17.06a1.56,1.56,0,0,0,.31,1,.93.93,0,0,0,.75.35,1,1,0,0,0,.76-.35,1.59,1.59,0,0,0,.3-1,1.55,1.55,0,0,0-.3-1,1,1,0,0,0-.76-.36.94.94,0,0,0-.75.36A1.56,1.56,0,0,0,15.05,232.73Z"/><path class="cls-1" d="M19,232.67a2.54,2.54,0,0,1,.28-1.16,2.05,2.05,0,0,1,.8-.85,2.34,2.34,0,0,1,1.15-.29,2.09,2.09,0,0,1,1.61.67,2.33,2.33,0,0,1,.63,1.68,2.38,2.38,0,0,1-.63,1.69,2.12,2.12,0,0,1-1.6.68,2.53,2.53,0,0,1-1.14-.28,1.88,1.88,0,0,1-.82-.83A2.79,2.79,0,0,1,19,232.67Zm1.18.06a1.56,1.56,0,0,0,.3,1,1,1,0,0,0,.76.35.94.94,0,0,0,.75-.35,1.59,1.59,0,0,0,.3-1,1.55,1.55,0,0,0-.3-1,1,1,0,0,0-.75-.36,1,1,0,0,0-.76.36A1.56,1.56,0,0,0,20.16,232.73Z"/><path class="cls-1" d="M24.35,235v-6.22h1.14V235Z"/><path class="cls-1" d="M26.54,233.32v-1.19h2.25v1.19Z"/><path class="cls-1" d="M31.44,230.47v1h-.79v1.81a3.6,3.6,0,0,0,0,.65.22.22,0,0,0,.1.15.29.29,0,0,0,.19.06,1.35,1.35,0,0,0,.46-.12l.1.93a2.21,2.21,0,0,1-.91.18,1.38,1.38,0,0,1-.55-.11.84.84,0,0,1-.37-.28,1.13,1.13,0,0,1-.16-.47,5.12,5.12,0,0,1,0-.84v-2H29v-1h.52v-.89l1.15-.7v1.59Z"/><path class="cls-1" d="M34.74,233.55l1.14.2a1.93,1.93,0,0,1-.69,1,2,2,0,0,1-1.19.35,1.93,1.93,0,0,1-1.68-.77,2.71,2.71,0,0,1-.42-1.56,2.52,2.52,0,0,1,.56-1.75,1.79,1.79,0,0,1,1.42-.64,1.87,1.87,0,0,1,1.53.67,3,3,0,0,1,.53,2H33.07a1.24,1.24,0,0,0,.28.83.83.83,0,0,0,.66.29.68.68,0,0,0,.45-.15A.92.92,0,0,0,34.74,233.55Zm.06-1.21a1.17,1.17,0,0,0-.25-.79.78.78,0,0,0-.6-.27.8.8,0,0,0-.62.29,1.16,1.16,0,0,0-.24.77Z"/><path class="cls-1" d="M40.65,231.81l-1.13.21a.84.84,0,0,0-.26-.53.75.75,0,0,0-.52-.18.82.82,0,0,0-.68.31,1.62,1.62,0,0,0-.26,1,1.9,1.9,0,0,0,.26,1.13.83.83,0,0,0,.7.33.75.75,0,0,0,.53-.19,1.13,1.13,0,0,0,.29-.66l1.13.2a2.17,2.17,0,0,1-.67,1.22,2.08,2.08,0,0,1-1.34.41,1.92,1.92,0,0,1-1.51-.63,2.46,2.46,0,0,1-.57-1.73,2.5,2.5,0,0,1,.57-1.74,2.28,2.28,0,0,1,2.79-.26A1.9,1.9,0,0,1,40.65,231.81Z"/><path class="cls-1" d="M42.66,228.76v2.29a1.67,1.67,0,0,1,1.33-.68,1.51,1.51,0,0,1,.71.16,1.18,1.18,0,0,1,.48.39,1.34,1.34,0,0,1,.22.52,4.82,4.82,0,0,1,.06.9V235H44.31V232.6a4,4,0,0,0-.06-.9.53.53,0,0,0-.23-.3.7.7,0,0,0-.42-.12.87.87,0,0,0-.83.58,2.74,2.74,0,0,0-.11.87V235H41.52v-6.22Z"/></g><g class="cls-2"><path class="cls-1" d="M10.6,245.43H9.45v-4.52h1.06v.64A1.85,1.85,0,0,1,11,241a.84.84,0,0,1,.49-.15,1.46,1.46,0,0,1,.76.23l-.36,1a1,1,0,0,0-.54-.2.61.61,0,0,0-.4.14.94.94,0,0,0-.27.5A7.8,7.8,0,0,0,10.6,244Z"/><path class="cls-1" d="M15.6,245.43v-.68a1.73,1.73,0,0,1-1.43.78,1.57,1.57,0,0,1-.79-.2,1.18,1.18,0,0,1-.5-.56,2.7,2.7,0,0,1-.15-1v-2.86h1.14V243a6.22,6.22,0,0,0,.06,1.16.61.61,0,0,0,.24.34.64.64,0,0,0,.42.13.93.93,0,0,0,.53-.17.8.8,0,0,0,.31-.42,4.72,4.72,0,0,0,.09-1.21v-1.91h1.15v4.52Z"/><path class="cls-1" d="M21.79,245.43H20.65v-2.31a3.52,3.52,0,0,0-.08-.94.66.66,0,0,0-.24-.34.72.72,0,0,0-.39-.12.94.94,0,0,0-.54.17.88.88,0,0,0-.32.46,3.87,3.87,0,0,0-.09,1v2.05H17.84v-4.52h1.07v.67a1.71,1.71,0,0,1,1.42-.77,1.75,1.75,0,0,1,.7.14,1.13,1.13,0,0,1,.47.37,1.21,1.21,0,0,1,.23.5,4.06,4.06,0,0,1,.06.8Z"/><path class="cls-1" d="M26.89,245.43H25.75v-2.31a3.52,3.52,0,0,0-.08-.94.66.66,0,0,0-.24-.34.72.72,0,0,0-.39-.12.87.87,0,0,0-.86.63,3.87,3.87,0,0,0-.09,1v2.05H22.94v-4.52H24v.67a1.72,1.72,0,0,1,1.43-.77,1.74,1.74,0,0,1,.69.14,1.13,1.13,0,0,1,.47.37,1.21,1.21,0,0,1,.23.5,4.06,4.06,0,0,1,.06.8Z"/><path class="cls-1" d="M28.06,240.3v-1.1H29.2v1.1Zm0,5.13v-4.52H29.2v4.52Z"/><path class="cls-1" d="M34.31,245.43H33.17v-2.31a4.24,4.24,0,0,0-.07-.94.66.66,0,0,0-.24-.34.75.75,0,0,0-.4-.12.88.88,0,0,0-.53.17.9.9,0,0,0-.33.46,3.87,3.87,0,0,0-.09,1v2.05H30.37v-4.52h1.06v.67a1.73,1.73,0,0,1,2.12-.63,1.23,1.23,0,0,1,.48.37,1.34,1.34,0,0,1,.22.5,4.06,4.06,0,0,1,.06.8Z"/><path class="cls-1" d="M35.37,245.72l1.31.17a.42.42,0,0,0,.15.32.8.8,0,0,0,.51.13,1.25,1.25,0,0,0,.68-.14.6.6,0,0,0,.23-.3,2.14,2.14,0,0,0,0-.55v-.66a1.54,1.54,0,0,1-1.3.74,1.59,1.59,0,0,1-1.38-.77,2.69,2.69,0,0,1-.4-1.52,2.55,2.55,0,0,1,.52-1.73,1.67,1.67,0,0,1,1.31-.6,1.58,1.58,0,0,1,1.32.74v-.64h1.07V245a4.51,4.51,0,0,1-.12,1.2,1.5,1.5,0,0,1-.36.62,1.56,1.56,0,0,1-.61.35,3.18,3.18,0,0,1-1,.13,2.42,2.42,0,0,1-1.56-.4,1.23,1.23,0,0,1-.46-1Zm1-2.64a1.69,1.69,0,0,0,.27,1,.82.82,0,0,0,.66.33.88.88,0,0,0,.71-.34,1.56,1.56,0,0,0,.29-1,1.63,1.63,0,0,0-.28-1.05.88.88,0,0,0-.7-.34.86.86,0,0,0-.68.34A1.59,1.59,0,0,0,36.39,243.08Z"/></g></g><path class="cls-1" d="M22.7,200.73a6.12,6.12,0,0,0-1.58,7A14.13,14.13,0,0,0,19,210.18c-2.6,3.94-5.61,7.73-9.3,3.81-5.47-5.79-2.64-16.85.77-20s8.88-3.48,12.29-.36A8,8,0,0,1,25,197.37c.22.55.44,1.14.65,1.73A7.15,7.15,0,0,0,22.7,200.73Z"/><path class="cls-1" d="M41.2,207a9.43,9.43,0,0,1-4.66,0l-1.87-.35a6.17,6.17,0,0,0-1.94-5.9,7.17,7.17,0,0,0-4-1.83,13,13,0,0,0-1.27-3.14c-2.43-4-4.5-8.33,1-9.3,8.21-1.45,17.23,6.33,18.48,10.6a7.86,7.86,0,0,1-5.28,9.79Z"/><path class="cls-1" d="M21.73,211.34l1.16-1.23a7.58,7.58,0,0,0,9.84-.17,8.94,8.94,0,0,0,.67-.71,17.51,17.51,0,0,0,3.45.5c5,.09,10.1.59,8.25,5.48-2.74,7.24-14.59,10.52-19.24,9.38s-7.74-5.31-6.49-9.58A7.78,7.78,0,0,1,21.73,211.34Z"/><path class="cls-1" d="M23.34,205.34a4.2,4.2,0,0,1,4.37-4,4,4,0,1,1,0,8A4.21,4.21,0,0,1,23.34,205.34Z"/><line class="cls-3" x1="281.09" y1="160.81" y2="160.81"/><rect class="cls-1" y="159.81" width="281.09" height="2"/><g class="cls-2"><path class="cls-1" d="M161.63,271.11H150.19V226.22a39.16,39.16,0,0,1-14.77,9V224.44a32.77,32.77,0,0,0,9.73-5.79,21.89,21.89,0,0,0,7.2-9.94h9.28Z"/><path class="cls-1" d="M217.46,224.18l-11.07,1.27a8.55,8.55,0,0,0-2.12-5.25,6,6,0,0,0-4.43-1.7,7.41,7.41,0,0,0-6.13,3.39q-2.51,3.39-3.15,14.12a13.16,13.16,0,0,1,10.62-5.26,16,16,0,0,1,12.27,5.68q5.1,5.69,5.11,14.67,0,9.54-5.37,15.3a19,19,0,0,1-28.65-1.55q-5.82-7.31-5.82-24,0-17.08,6.06-24.62a19.26,19.26,0,0,1,15.75-7.55,16.31,16.31,0,0,1,11.25,4Q216.24,216.65,217.46,224.18Zm-25.92,26q0,5.81,2.56,9a7.44,7.44,0,0,0,5.86,3.16,6.55,6.55,0,0,0,5.29-2.59c1.41-1.72,2.12-4.55,2.12-8.47s-.76-7-2.28-8.88a7.14,7.14,0,0,0-11.27-.13Q191.54,244.9,191.54,250.17Z"/></g><g class="cls-2"><path class="cls-1" d="M276.2,242.52l-9.94,1.77a7.19,7.19,0,0,0-2.28-4.44,7,7,0,0,0-4.61-1.49,7.6,7.6,0,0,0-6,2.57c-1.49,1.72-2.24,4.6-2.24,8.62q0,6.72,2.28,9.5a7.54,7.54,0,0,0,6.12,2.77,6.83,6.83,0,0,0,4.7-1.62q1.83-1.62,2.59-5.56l9.91,1.67q-1.54,6.75-5.93,10.2T259,270q-8.37,0-13.33-5.23t-5-14.46q0-9.36,5-14.56t13.5-5.21q7,0,11.08,3A16.38,16.38,0,0,1,276.2,242.52Z"/></g><path class="cls-1" d="M241.21,209.82a8.82,8.82,0,1,0,8.79,8.85v0A8.82,8.82,0,0,0,241.21,209.82Zm0,13.1a4.29,4.29,0,1,1,4.28-4.29h0a4.27,4.27,0,0,1-4.27,4.28Z"/><g class="cls-2"><path class="cls-1" d="M130.24,177.68v-3.21h3.33v3.21Zm0,14.86V179.45h3.33v13.09Z"/><path class="cls-1" d="M148.41,192.54h-3.33v-6.68a10.86,10.86,0,0,0-.21-2.74,1.89,1.89,0,0,0-.69-1,1.94,1.94,0,0,0-1.16-.34,2.6,2.6,0,0,0-1.55.49,2.45,2.45,0,0,0-.94,1.31,11.72,11.72,0,0,0-.25,3v5.93H137V179.45H140v1.92a5,5,0,0,1,4.14-2.21,4.77,4.77,0,0,1,2,.41,3.32,3.32,0,0,1,1.37,1.05,3.87,3.87,0,0,1,.65,1.46,10.66,10.66,0,0,1,.19,2.33Z"/><path class="cls-1" d="M163.31,192.54h-3.09v-1.92a5,5,0,0,1-1.82,1.67,4.43,4.43,0,0,1-2.11.55,4.73,4.73,0,0,1-3.71-1.82,9.2,9.2,0,0,1,0-10.13,4.8,4.8,0,0,1,3.8-1.73A4.61,4.61,0,0,1,160,181v-6.51h3.33Zm-8.88-6.83a6.25,6.25,0,0,0,.56,3,2.51,2.51,0,0,0,2.25,1.35,2.41,2.41,0,0,0,1.95-1,4.82,4.82,0,0,0,.81-3,5.22,5.22,0,0,0-.79-3.25,2.5,2.5,0,0,0-4,0A4.56,4.56,0,0,0,154.43,185.71Z"/><path class="cls-1" d="M165.82,185.81a7.37,7.37,0,0,1,.81-3.34A5.75,5.75,0,0,1,169,180a6.61,6.61,0,0,1,3.34-.85,6.15,6.15,0,0,1,4.68,1.93,6.82,6.82,0,0,1,1.82,4.87,6.91,6.91,0,0,1-1.84,4.93,6.1,6.1,0,0,1-4.63,2A7.09,7.09,0,0,1,169,192a5.52,5.52,0,0,1-2.39-2.39A8.28,8.28,0,0,1,165.82,185.81Zm3.41.19a4.4,4.4,0,0,0,.89,3,2.82,2.82,0,0,0,4.37,0,4.51,4.51,0,0,0,.88-3,4.39,4.39,0,0,0-.88-2.95,2.82,2.82,0,0,0-4.37,0A4.39,4.39,0,0,0,169.23,186Z"/><path class="cls-1" d="M180.62,185.81a7.39,7.39,0,0,1,.82-3.34,5.75,5.75,0,0,1,2.32-2.46,6.59,6.59,0,0,1,3.34-.85,6.15,6.15,0,0,1,4.68,1.93A6.82,6.82,0,0,1,193.6,186a7,7,0,0,1-1.84,4.93,6.11,6.11,0,0,1-4.64,2,7.05,7.05,0,0,1-3.29-.81,5.52,5.52,0,0,1-2.39-2.39A8.27,8.27,0,0,1,180.62,185.81ZM184,186a4.46,4.46,0,0,0,.89,3,2.77,2.77,0,0,0,2.19,1,2.74,2.74,0,0,0,2.18-1,4.51,4.51,0,0,0,.89-3,4.39,4.39,0,0,0-.89-2.95,2.71,2.71,0,0,0-2.18-1,2.74,2.74,0,0,0-2.19,1A4.44,4.44,0,0,0,184,186Z"/><path class="cls-1" d="M199.38,192.54h-3.32V179.45h3.09v1.86a5.59,5.59,0,0,1,1.42-1.74,2.66,2.66,0,0,1,1.44-.41,4,4,0,0,1,2.19.65l-1,3a2.83,2.83,0,0,0-1.56-.57,1.81,1.81,0,0,0-1.18.4,2.77,2.77,0,0,0-.77,1.45,21.79,21.79,0,0,0-.28,4.39Z"/><path class="cls-1" d="M218.13,179.45v2.76h-2.27v5.28a12.27,12.27,0,0,0,.07,1.87.8.8,0,0,0,.29.44,1,1,0,0,0,.56.17,4.16,4.16,0,0,0,1.34-.33l.29,2.68a6.33,6.33,0,0,1-2.63.52,4,4,0,0,1-1.62-.31,2.32,2.32,0,0,1-1.06-.82,3.24,3.24,0,0,1-.47-1.35,17.36,17.36,0,0,1-.11-2.44v-5.71H211v-2.76h1.52v-2.6l3.34-2v4.62Z"/><path class="cls-1" d="M227.72,188.38,231,189a5.69,5.69,0,0,1-2,2.89,5.77,5.77,0,0,1-3.45,1,5.54,5.54,0,0,1-4.86-2.23,7.71,7.71,0,0,1-1.24-4.51,7.47,7.47,0,0,1,1.63-5.1,5.28,5.28,0,0,1,4.13-1.84,5.46,5.46,0,0,1,4.43,1.93q1.62,1.92,1.55,5.91h-8.33a3.61,3.61,0,0,0,.8,2.4,2.49,2.49,0,0,0,1.92.85,2,2,0,0,0,1.32-.44A2.84,2.84,0,0,0,227.72,188.38Zm.19-3.5a3.36,3.36,0,0,0-.75-2.29,2.23,2.23,0,0,0-1.72-.78,2.26,2.26,0,0,0-1.8.82,3.25,3.25,0,0,0-.7,2.25Z"/><path class="cls-1" d="M233.67,179.45h3.07v1.79a4.87,4.87,0,0,1,3.92-2.08,4.12,4.12,0,0,1,2.09.51,4,4,0,0,1,1.46,1.57,5.91,5.91,0,0,1,1.79-1.57,4.26,4.26,0,0,1,2-.51,4.43,4.43,0,0,1,2.35.58,3.54,3.54,0,0,1,1.43,1.72,7.72,7.72,0,0,1,.34,2.71v8.37h-3.32v-7.48a5.67,5.67,0,0,0-.35-2.51,1.54,1.54,0,0,0-1.42-.74,2.17,2.17,0,0,0-1.31.44,2.48,2.48,0,0,0-.89,1.3,9.85,9.85,0,0,0-.27,2.71v6.28h-3.33v-7.17a11.08,11.08,0,0,0-.17-2.47,1.57,1.57,0,0,0-.56-.82,1.66,1.66,0,0,0-1-.27,2.32,2.32,0,0,0-2.26,1.67,9.57,9.57,0,0,0-.27,2.7v6.36h-3.33Z"/><path class="cls-1" d="M255.38,179.45h3.1v1.92a4.74,4.74,0,0,1,1.64-1.6,4.33,4.33,0,0,1,2.28-.61,4.72,4.72,0,0,1,3.72,1.78,7.5,7.5,0,0,1,1.52,5,7.63,7.63,0,0,1-1.54,5.1,4.7,4.7,0,0,1-3.72,1.82,4,4,0,0,1-1.89-.43,6.3,6.3,0,0,1-1.78-1.48v6.6h-3.33Zm3.29,6.33a5.21,5.21,0,0,0,.84,3.26,2.54,2.54,0,0,0,2.05,1.05,2.36,2.36,0,0,0,1.93-1,5.14,5.14,0,0,0,.77-3.17,4.89,4.89,0,0,0-.8-3.06,2.42,2.42,0,0,0-2-1,2.51,2.51,0,0,0-2,1A4.49,4.49,0,0,0,258.67,185.78Z"/></g></g></g></g></g></svg>