<svg xmlns="http://www.w3.org/2000/svg" viewBox="0 0 317.99 120.71"><defs><style>.cls-1{fill:#bba3ba;}</style></defs><title>Asset 3</title><g id="Layer_2" data-name="Layer 2"><g id="Layer_1-2" data-name="Layer 1"><path class="cls-1" d="M163.26,45.78H133.75V39.34l10.6-11.1q4.71-5,6.15-6.93a15.68,15.68,0,0,0,2.08-3.57,9.5,9.5,0,0,0,.63-3.41,5.07,5.07,0,0,0-1.4-3.93,5.34,5.34,0,0,0-3.74-1.28,10.43,10.43,0,0,0-4.76,1.17,23.88,23.88,0,0,0-4.82,3.32l-4.85-6a32,32,0,0,1,5.16-3.89A18.57,18.57,0,0,1,143.28,2a22.16,22.16,0,0,1,5.43-.61,15.75,15.75,0,0,1,7,1.49,11.28,11.28,0,0,1,4.7,4.19,11.42,11.42,0,0,1,1.68,6.17,15.68,15.68,0,0,1-1,5.67,21.68,21.68,0,0,1-3.18,5.43,78.74,78.74,0,0,1-7.57,7.93l-5.43,5.3V38h18.39Z"/><path class="cls-1" d="M197,45.78H167.5V39.34l10.6-11.1q4.71-5,6.15-6.93a15.32,15.32,0,0,0,2.08-3.57,9.5,9.5,0,0,0,.63-3.41,5.07,5.07,0,0,0-1.4-3.93,5.33,5.33,0,0,0-3.73-1.28,10.44,10.44,0,0,0-4.77,1.17,23.88,23.88,0,0,0-4.82,3.32l-4.85-6a32,32,0,0,1,5.17-3.89A18.49,18.49,0,0,1,177,2a22.16,22.16,0,0,1,5.43-.61,15.69,15.69,0,0,1,7,1.49,11.28,11.28,0,0,1,4.7,4.19,11.42,11.42,0,0,1,1.68,6.17,15.47,15.47,0,0,1-1,5.67,21.93,21.93,0,0,1-3.17,5.43,79.12,79.12,0,0,1-7.58,7.93l-5.43,5.3V38H197Z"/><path class="cls-1" d="M136.67,60.5a4.5,4.5,0,0,1-1.7-1.21l1.12-1.54A3.65,3.65,0,0,0,138.66,59a2.22,2.22,0,0,0,1.18-.28.92.92,0,0,0,.46-.84,1,1,0,0,0-.47-.88,4.87,4.87,0,0,0-1.06-.47l-.75-.23a4,4,0,0,1-2-1.21,2.86,2.86,0,0,1-.64-1.86,3.2,3.2,0,0,1,.41-1.6,3.13,3.13,0,0,1,1.26-1.21,4.24,4.24,0,0,1,2.06-.46,6.56,6.56,0,0,1,2,.27,5,5,0,0,1,1.58.85l-1,1.63a3.22,3.22,0,0,0-1-.65,2.84,2.84,0,0,0-1.1-.25,1.74,1.74,0,0,0-1,.29,1,1,0,0,0,0,1.6,6.3,6.3,0,0,0,1.38.6l.53.17a4.42,4.42,0,0,1,1.85,1.08,2.51,2.51,0,0,1,.67,1.82,3.32,3.32,0,0,1-1.06,2.52,4.2,4.2,0,0,1-3,1A5.83,5.83,0,0,1,136.67,60.5Z"/><path class="cls-1" d="M155.61,50.39V60.7H153.2L153,58.85a4,4,0,0,1-1.55,1.67,4.43,4.43,0,0,1-2.33.62,3.25,3.25,0,0,1-2.3-.86,3,3,0,0,1-.94-2.23V50.39h2.67v6.68c0,1.14.59,1.72,1.64,1.73a2.3,2.3,0,0,0,1.94-1.09,4.73,4.73,0,0,0,.77-2.76V50.39Z"/><path class="cls-1" d="M168.21,50.82a2.94,2.94,0,0,1,1,2.23V60.7h-2.66V54a2,2,0,0,0-.47-1.27,1.66,1.66,0,0,0-1.25-.49,2.41,2.41,0,0,0-2,1.09,4.54,4.54,0,0,0-.8,2.76V60.7H159.3V50.39h2.4l.19,1.83a4,4,0,0,1,1.58-1.67,4.68,4.68,0,0,1,2.39-.59A3.33,3.33,0,0,1,168.21,50.82Z"/><path class="cls-1" d="M181.75,50.82a2.94,2.94,0,0,1,1,2.23V60.7h-2.66V54a2,2,0,0,0-.47-1.27,1.65,1.65,0,0,0-1.24-.49,2.42,2.42,0,0,0-2,1.09,4.54,4.54,0,0,0-.8,2.76V60.7h-2.66V50.39h2.4l.19,1.83A4,4,0,0,1,177,50.55a4.69,4.69,0,0,1,2.4-.59A3.32,3.32,0,0,1,181.75,50.82Z"/><path class="cls-1" d="M196.33,50.39l-6.5,15.26h-2.62l2.36-5.39-4.67-9.87h3l3,6.83,3-6.83Z"/><path class="cls-1" d="M223.78,44.87q-6.34,0-9.65-3.68t-3.31-10.55q0-7,3.46-10.77t10-3.76a18.8,18.8,0,0,1,8,1.63l-1.79,4.74A18.15,18.15,0,0,0,224.21,21Q217,21,217,30.59q0,4.67,1.81,7a6.26,6.26,0,0,0,5.3,2.35,15.29,15.29,0,0,0,7.52-2v5.15a11.92,11.92,0,0,1-3.41,1.33A20.41,20.41,0,0,1,223.78,44.87Z"/><path class="cls-1" d="M82.9,82.86c5.3-5.27,9.23-13.74,9.23-21.27,0-8.66-1.57-13.26-5.85-19.75-5-7.57-15.42-13.52-24.86-13.52-6.59,0-9.06.48-14.78,2.93a33.62,33.62,0,0,0-9,6.3c-5.19,5.21-9.44,13.31-9.44,21.27,0,5.9.45,10.07,3.05,15.28A32.32,32.32,0,0,0,46.34,89.24C58.29,95.21,73.3,92.41,82.9,82.86ZM38.53,70.62a22.53,22.53,0,0,1-2.28-9.24c0-7.47,1.93-12.91,7-18,7.15-7.15,18.44-9.1,27.06-4.78C78.08,42.52,84,50.37,84,59.24c0,4.33-.35,7.54-2.2,11.24A24.1,24.1,0,0,1,70.59,81.85C59.3,87.53,44.81,83.09,38.53,70.62Z"/><path class="cls-1" d="M56.09,4.22V20.43c0,5.31,8.1,5.31,8.1,0V4.22C64.19-1.08,56.09-1.08,56.09,4.22Z"/><path class="cls-1" d="M64.19,116.4V100.19c0-5.3-8.1-5.3-8.1,0V116.4C56.09,121.7,64.19,121.7,64.19,116.4Z"/><path class="cls-1" d="M116.22,56.26H100a4.05,4.05,0,1,0,0,8.1h16.2C121.53,64.36,121.53,56.26,116.22,56.26Z"/><path class="cls-1" d="M4.05,64.36H20.26c5.3,0,5.3-8.1,0-8.1H4.05a4.05,4.05,0,0,0,0,8.1Z"/><path class="cls-1" d="M103.85,20.86a4.14,4.14,0,0,0-4-4.27c-2.2,0-3.46,1.86-4.64,3l-7.67,7.68c-1.1,1.1-3.26,2.68-3.26,4.64a4.21,4.21,0,0,0,4.27,4.26c1.94,0,3.45-2.06,4.53-3.14l7.68-7.68C101.79,24.31,103.85,22.8,103.85,20.86Z"/><path class="cls-1" d="M31.77,36.21A4.2,4.2,0,0,0,36,32C36,30,34,28.5,32.89,27.42l-7.67-7.68c-1.08-1.08-2.6-3.15-4.53-3.15a4.14,4.14,0,0,0-4.27,4.27c0,1.94,2.07,3.45,3.15,4.53l7.67,7.68C28.32,34.15,29.84,36.21,31.77,36.21Z"/><path class="cls-1" d="M16.42,100a4.13,4.13,0,0,0,4,4c2.2,0,3.46-1.86,4.64-3l7.78-7.79c1.38-1.37,5-4.17,2-7.46a5.22,5.22,0,0,0-2.72-1.33c-2.43,0-3.47,1.66-4.74,2.93l-7.89,7.89C18.37,96.43,16.42,97.75,16.42,100Z"/><path class="cls-1" d="M85.57,85.53a5.19,5.19,0,0,0-1.34,2.72c0,2.43,1.67,3.47,2.94,4.74l7.89,7.89c1.2,1.2,2.52,3.15,4.74,3.15a4.13,4.13,0,0,0,4-4c0-2.2-1.85-3.46-3-4.64L93,87.55C91.66,86.18,88.86,82.54,85.57,85.53Z"/><path class="cls-1" d="M210.74,2.51A6.23,6.23,0,1,0,217,8.74,6.23,6.23,0,0,0,210.74,2.51Zm0,9.25a3,3,0,1,1,3-3A3,3,0,0,1,210.74,11.76Z"/><path class="cls-1" d="M269.28,119.82h-5.37V104.59l0-2.5.09-2.73a25.79,25.79,0,0,1-1.86,1.81l-2.91,2.43-2.59-3.34,8.18-6.75h4.41Z"/><path class="cls-1" d="M276.14,108.64q0-7.8,3.18-11.62t9.55-3.82a16.71,16.71,0,0,1,3.4.27v4.45a13.45,13.45,0,0,0-3.06-.36,10.08,10.08,0,0,0-4.5.86,5.7,5.7,0,0,0-2.62,2.56,12.14,12.14,0,0,0-1,4.8h.23a5.84,5.84,0,0,1,5.5-3.06,6.68,6.68,0,0,1,5.33,2.22,9,9,0,0,1,1.93,6.12,9.44,9.44,0,0,1-2.29,6.67,8.3,8.3,0,0,1-6.36,2.45,8.83,8.83,0,0,1-4.9-1.35,8.67,8.67,0,0,1-3.24-3.94A15.65,15.65,0,0,1,276.14,108.64Zm9.17,7.1a3.14,3.14,0,0,0,2.64-1.2,5.53,5.53,0,0,0,.92-3.41,4.81,4.81,0,0,0-.86-3,3.09,3.09,0,0,0-2.6-1.11,3.87,3.87,0,0,0-2.79,1.1,3.41,3.41,0,0,0-1.15,2.55,6,6,0,0,0,1.08,3.62A3.31,3.31,0,0,0,285.31,115.74Z"/><path class="cls-1" d="M310.16,119.27a7.39,7.39,0,0,1-5.81-2.21,9.2,9.2,0,0,1-2-6.34,9.27,9.27,0,0,1,2.08-6.48,7.75,7.75,0,0,1,6-2.26,11.24,11.24,0,0,1,4.79,1l-1.08,2.85a11,11,0,0,0-3.74-.87c-2.92,0-4.37,1.91-4.37,5.75a6.84,6.84,0,0,0,1.09,4.22,3.78,3.78,0,0,0,3.19,1.41,9.27,9.27,0,0,0,4.52-1.18v3.09a6.94,6.94,0,0,1-2.05.8A12.51,12.51,0,0,1,310.16,119.27Z"/><path class="cls-1" d="M302.31,93.8a3.75,3.75,0,1,0,3.74,3.74A3.74,3.74,0,0,0,302.31,93.8Zm0,5.56a1.82,1.82,0,1,1,1.82-1.82A1.82,1.82,0,0,1,302.31,99.36Z"/><line class="cls-1" x1="246.88" y1="0.71" x2="246.88" y2="120.71"/><rect class="cls-1" x="245.88" y="0.71" width="2" height="120"/><path class="cls-1" d="M142.58,93.09a3,3,0,0,1-1.12,2.56,5.42,5.42,0,0,1-3.38.88,10.07,10.07,0,0,1-2-.16,6.89,6.89,0,0,1-1.52-.47V93.44a10.35,10.35,0,0,0,1.81.65,6.88,6.88,0,0,0,1.77.26q1.56,0,1.56-.93a.8.8,0,0,0-.2-.58,3.43,3.43,0,0,0-.72-.5c-.34-.18-.79-.4-1.36-.65a8.69,8.69,0,0,1-1.79-1,2.87,2.87,0,0,1-.83-1,3.61,3.61,0,0,1-.25-1.44A2.63,2.63,0,0,1,135.67,86a5.19,5.19,0,0,1,3.09-.8,8.57,8.57,0,0,1,3.71.86l-.87,2.15c-.53-.23-1-.42-1.48-.57a4.51,4.51,0,0,0-1.4-.23c-.85,0-1.28.24-1.28.72a.85.85,0,0,0,.41.69,10.78,10.78,0,0,0,1.8.87,8.42,8.42,0,0,1,1.81,1,2.85,2.85,0,0,1,.85,1A3.36,3.36,0,0,1,142.58,93.09Z"/><path class="cls-1" d="M151.52,96.34,151,94.85h-.08a4.37,4.37,0,0,1-1.49,1.32,4.76,4.76,0,0,1-2,.36,3.17,3.17,0,0,1-2.39-.9,3.51,3.51,0,0,1-.87-2.56,2.91,2.91,0,0,1,1.17-2.56,6.68,6.68,0,0,1,3.55-.92l1.83-.06v-.47A1.47,1.47,0,0,0,149,87.39a7.28,7.28,0,0,0-3,.8l-.95-2a8.31,8.31,0,0,1,4-1,4.89,4.89,0,0,1,3.25,1,3.59,3.59,0,0,1,1.13,2.92v7.28Zm-.84-5.07-1.12,0a3.53,3.53,0,0,0-1.86.47,1.51,1.51,0,0,0-.62,1.31c0,.84.47,1.26,1.4,1.26a2,2,0,0,0,2.2-2.18Z"/><path class="cls-1" d="M160.94,94.16a6.34,6.34,0,0,0,1.81-.34V96a6.32,6.32,0,0,1-2.64.49,3.2,3.2,0,0,1-2.52-.9,4.06,4.06,0,0,1-.78-2.71V87.65h-1.38V86.39l1.58-1,.83-2.31h1.84v2.33h3v2.24h-3v5.27a1.21,1.21,0,0,0,.35.94A1.33,1.33,0,0,0,160.94,94.16Z"/><path class="cls-1" d="M172.35,96.34l-.39-1.4h-.15a3.07,3.07,0,0,1-1.31,1.18,4.28,4.28,0,0,1-1.93.41,3.6,3.6,0,0,1-2.8-1,4.23,4.23,0,0,1-1-3V85.41h2.88v6.38a3.19,3.19,0,0,0,.41,1.78,1.46,1.46,0,0,0,1.29.59,1.91,1.91,0,0,0,1.74-.84,5.3,5.3,0,0,0,.54-2.77V85.41h2.88V96.34Z"/><path class="cls-1" d="M183.46,85.2a4.38,4.38,0,0,1,1,.09l-.21,2.8a3.05,3.05,0,0,0-.85-.1,3,3,0,0,0-2.15.73,2.73,2.73,0,0,0-.77,2.06v5.56h-2.87V85.41h2.17l.43,1.84h.14a4,4,0,0,1,1.33-1.48A3.13,3.13,0,0,1,183.46,85.2Z"/><path class="cls-1" d="M189.69,96.53A3.37,3.37,0,0,1,186.77,95a8.66,8.66,0,0,1,0-8.34,3.46,3.46,0,0,1,3-1.5,3.41,3.41,0,0,1,3,1.61h.09a13.06,13.06,0,0,1-.21-2.18v-3.5h2.88V96.34h-2.21l-.55-1.42h-.12A3.27,3.27,0,0,1,189.69,96.53Zm1-2.37a1.9,1.9,0,0,0,1.62-.67,3.87,3.87,0,0,0,.56-2.25v-.33a4.6,4.6,0,0,0-.52-2.52,1.91,1.91,0,0,0-1.7-.76,1.69,1.69,0,0,0-1.5.84,4.73,4.73,0,0,0-.53,2.46,4.38,4.38,0,0,0,.54,2.42A1.73,1.73,0,0,0,190.69,94.16Z"/><path class="cls-1" d="M205.27,96.34l-.56-1.49h-.07a4.48,4.48,0,0,1-1.5,1.32,4.74,4.74,0,0,1-2,.36,3.16,3.16,0,0,1-2.39-.9,3.47,3.47,0,0,1-.88-2.56,2.9,2.9,0,0,1,1.18-2.56,6.62,6.62,0,0,1,3.54-.92l1.83-.06v-.47a1.47,1.47,0,0,0-1.64-1.67,7.2,7.2,0,0,0-3,.8l-1-2a8.33,8.33,0,0,1,4-1,4.87,4.87,0,0,1,3.25,1,3.6,3.6,0,0,1,1.14,2.92v7.28Zm-.85-5.07-1.11,0a3.57,3.57,0,0,0-1.87.47,1.51,1.51,0,0,0-.62,1.31c0,.84.47,1.26,1.4,1.26a2,2,0,0,0,2.2-2.18Z"/><path class="cls-1" d="M208.73,85.41h3.15l2,6.15a9.12,9.12,0,0,1,.35,1.89h.05a8.68,8.68,0,0,1,.41-1.89l1.95-6.15h3.09l-4.46,12.33a5.41,5.41,0,0,1-1.75,2.56,4.38,4.38,0,0,1-2.66.85,6.48,6.48,0,0,1-1.46-.17V98.62a5,5,0,0,0,1.13.12,2,2,0,0,0,1.33-.48,3.12,3.12,0,0,0,.9-1.46l.17-.54Z"/><path class="cls-1" d="M142.31,118.72h-7.95V117l2.85-3c.85-.9,1.4-1.52,1.66-1.87a3.94,3.94,0,0,0,.56-1,2.42,2.42,0,0,0,.17-.92,1.37,1.37,0,0,0-.37-1.06,1.46,1.46,0,0,0-1-.35,2.86,2.86,0,0,0-1.29.32,7,7,0,0,0-1.3.89l-1.31-1.6a8,8,0,0,1,1.4-1,4.76,4.76,0,0,1,1.21-.47,5.91,5.91,0,0,1,1.46-.17,4.3,4.3,0,0,1,1.88.4,3,3,0,0,1,1.27,1.13A3.12,3.12,0,0,1,142,110a4.32,4.32,0,0,1-.27,1.53,6.1,6.1,0,0,1-.86,1.46,21.72,21.72,0,0,1-2,2.14l-1.47,1.43v.11h5Z"/><path class="cls-1" d="M151.35,112.82a8.5,8.5,0,0,1-1,4.58,3.35,3.35,0,0,1-3,1.48,3.3,3.3,0,0,1-3-1.53,8.31,8.31,0,0,1-1-4.53,8.51,8.51,0,0,1,1-4.6,3.7,3.7,0,0,1,6,.06A8.42,8.42,0,0,1,151.35,112.82Zm-5.56,0a9.5,9.5,0,0,0,.36,3.11,1.25,1.25,0,0,0,2.43,0,12.92,12.92,0,0,0,0-6.22,1.25,1.25,0,0,0-2.43,0A9.61,9.61,0,0,0,145.79,112.82Z"/><path class="cls-1" d="M158.43,106.92l-4.24,11.8H152l4.25-11.8Z"/><path class="cls-1" d="M167.05,112.82a8.49,8.49,0,0,1-1,4.58,3.72,3.72,0,0,1-6-.05,8.31,8.31,0,0,1-1-4.53,8.51,8.51,0,0,1,1-4.6,3.7,3.7,0,0,1,6,.06A8.41,8.41,0,0,1,167.05,112.82Zm-5.57,0a9.5,9.5,0,0,0,.36,3.11,1.25,1.25,0,0,0,2.43,0,12.92,12.92,0,0,0,0-6.22,1.25,1.25,0,0,0-2.43,0A9.61,9.61,0,0,0,161.48,112.82Z"/><path class="cls-1" d="M176.47,116.27H175.1v2.45h-2.35v-2.45h-4.86v-1.73l5-7.62h2.22v7.42h1.37Zm-3.72-1.93v-2c0-.34,0-.82,0-1.46s0-1,.06-1.1h-.06a10.12,10.12,0,0,1-.7,1.29L170,114.34Z"/><path class="cls-1" d="M183.23,106.92,179,118.72h-2.15l4.24-11.8Z"/><path class="cls-1" d="M191.9,118.72h-8V117l2.86-3c.85-.9,1.4-1.52,1.66-1.87a3.94,3.94,0,0,0,.56-1,2.42,2.42,0,0,0,.17-.92,1.37,1.37,0,0,0-.37-1.06,1.46,1.46,0,0,0-1-.35,2.86,2.86,0,0,0-1.29.32,7,7,0,0,0-1.3.89l-1.31-1.6a8,8,0,0,1,1.4-1,4.84,4.84,0,0,1,1.2-.47,6.06,6.06,0,0,1,1.47-.17,4.3,4.3,0,0,1,1.88.4,3,3,0,0,1,1.27,1.13,3.12,3.12,0,0,1,.45,1.67,4.32,4.32,0,0,1-.27,1.53,6.1,6.1,0,0,1-.86,1.46,21.72,21.72,0,0,1-2,2.14l-1.47,1.43v.11h5Z"/><path class="cls-1" d="M200.94,112.82a8.5,8.5,0,0,1-1,4.58,3.35,3.35,0,0,1-3,1.48,3.3,3.3,0,0,1-3-1.53,8.31,8.31,0,0,1-1-4.53,8.51,8.51,0,0,1,1-4.6,3.7,3.7,0,0,1,6,.06A8.42,8.42,0,0,1,200.94,112.82Zm-5.56,0a9.5,9.5,0,0,0,.36,3.11,1.25,1.25,0,0,0,2.43,0,12.92,12.92,0,0,0,0-6.22,1.25,1.25,0,0,0-2.43,0A9.61,9.61,0,0,0,195.38,112.82Z"/><path class="cls-1" d="M208.1,118.72h-2.41v-6.83l0-1.12,0-1.23a10.87,10.87,0,0,1-.84.82l-1.3,1.09-1.16-1.5,3.66-3h2Z"/><path class="cls-1" d="M215.18,106.77a4.18,4.18,0,0,1,2.64.77,2.49,2.49,0,0,1,1,2.08,2.74,2.74,0,0,1-.49,1.61,4.14,4.14,0,0,1-1.55,1.26,5.54,5.54,0,0,1,1.83,1.48,2.83,2.83,0,0,1,.56,1.69,2.86,2.86,0,0,1-1.1,2.34,4.47,4.47,0,0,1-2.89.88,4.71,4.71,0,0,1-2.94-.82,2.78,2.78,0,0,1-1.06-2.33,3.17,3.17,0,0,1,.52-1.8,4.27,4.27,0,0,1,1.66-1.38,4.25,4.25,0,0,1-1.4-1.36,3,3,0,0,1-.43-1.59,2.48,2.48,0,0,1,1-2A4.19,4.19,0,0,1,215.18,106.77Zm-1.78,8.81a1.34,1.34,0,0,0,.47,1.08,2.37,2.37,0,0,0,2.62,0,1.37,1.37,0,0,0,.44-1.05,1.46,1.46,0,0,0-.44-1,5.59,5.59,0,0,0-1.43-1C214,114.11,213.4,114.77,213.4,115.58Zm1.76-7a1.44,1.44,0,0,0-1,.33,1.11,1.11,0,0,0-.38.87,1.35,1.35,0,0,0,.3.87,3.32,3.32,0,0,0,1.09.79,3.13,3.13,0,0,0,1.07-.76,1.44,1.44,0,0,0,.3-.9,1.09,1.09,0,0,0-.39-.88A1.54,1.54,0,0,0,215.16,108.59Z"/><path class="cls-1" d="M255.19,79.09q0-.78.84-.78t.84.78a.78.78,0,0,1-.21.58.86.86,0,0,1-.63.21C255.47,79.88,255.19,79.62,255.19,79.09Zm1.61,7.37h-1.54V80.61h1.54Z"/><path class="cls-1" d="M263.63,86.46h-1.54V83a1.65,1.65,0,0,0-.22-1,.77.77,0,0,0-.69-.32,1,1,0,0,0-.94.45,2.92,2.92,0,0,0-.28,1.49v2.75h-1.54V80.61h1.17l.21.75h.09a1.6,1.6,0,0,1,.71-.65,2.38,2.38,0,0,1,1-.21,1.93,1.93,0,0,1,1.5.55,2.27,2.27,0,0,1,.51,1.59Z"/><path class="cls-1" d="M267,86.56a1.8,1.8,0,0,1-1.56-.8,4.61,4.61,0,0,1,0-4.46,1.84,1.84,0,0,1,1.59-.8,1.81,1.81,0,0,1,1.63.86h.05a6.63,6.63,0,0,1-.12-1.17V78.31h1.55v8.15H269l-.3-.76h-.07A1.73,1.73,0,0,1,267,86.56Zm.54-1.27a1,1,0,0,0,.87-.35,2.19,2.19,0,0,0,.3-1.21v-.18a2.47,2.47,0,0,0-.28-1.35,1,1,0,0,0-.91-.4.89.89,0,0,0-.8.45,2.47,2.47,0,0,0-.29,1.31,2.38,2.38,0,0,0,.29,1.3A.93.93,0,0,0,267.54,85.29Z"/><path class="cls-1" d="M276.89,83.52a3.24,3.24,0,0,1-.72,2.24,2.59,2.59,0,0,1-2,.8,2.79,2.79,0,0,1-1.43-.36,2.41,2.41,0,0,1-1-1.06,3.75,3.75,0,0,1-.33-1.62,3.22,3.22,0,0,1,.72-2.23,2.6,2.6,0,0,1,2-.79,2.85,2.85,0,0,1,1.44.36,2.45,2.45,0,0,1,.95,1.06A3.63,3.63,0,0,1,276.89,83.52Zm-3.9,0a2.49,2.49,0,0,0,.28,1.32,1.12,1.12,0,0,0,1.78,0,2.58,2.58,0,0,0,.27-1.32,2.5,2.5,0,0,0-.27-1.3,1,1,0,0,0-.9-.44,1,1,0,0,0-.89.44A2.47,2.47,0,0,0,273,83.52Z"/><path class="cls-1" d="M283.3,83.52a3.2,3.2,0,0,1-.73,2.24,2.57,2.57,0,0,1-2,.8,2.82,2.82,0,0,1-1.44-.36,2.45,2.45,0,0,1-.95-1.06,3.75,3.75,0,0,1-.34-1.62,3.17,3.17,0,0,1,.73-2.23,2.59,2.59,0,0,1,2-.79,2.79,2.79,0,0,1,1.43.36,2.47,2.47,0,0,1,1,1.06A3.63,3.63,0,0,1,283.3,83.52Zm-3.9,0a2.6,2.6,0,0,0,.27,1.32,1,1,0,0,0,.9.44,1,1,0,0,0,.88-.44,2.58,2.58,0,0,0,.27-1.32,2.5,2.5,0,0,0-.27-1.3,1.12,1.12,0,0,0-1.78,0A2.47,2.47,0,0,0,279.4,83.52Z"/><path class="cls-1" d="M287.73,80.5a2.45,2.45,0,0,1,.51,0l-.11,1.5a2,2,0,0,0-.46-.05,1.62,1.62,0,0,0-1.15.39,1.46,1.46,0,0,0-.41,1.1v3h-1.54V80.61h1.17l.23,1H286a2.17,2.17,0,0,1,.71-.79A1.72,1.72,0,0,1,287.73,80.5Z"/><path class="cls-1" d="M294.34,85.29a3.3,3.3,0,0,0,1-.18V86.3a3.37,3.37,0,0,1-1.42.26,1.7,1.7,0,0,1-1.34-.48,2.16,2.16,0,0,1-.43-1.45V81.81h-.73v-.68l.85-.53.44-1.24h1v1.25h1.58v1.2h-1.58v2.82a.64.64,0,0,0,.18.5A.71.71,0,0,0,294.34,85.29Z"/><path class="cls-1" d="M299,86.56a2.88,2.88,0,0,1-2.14-.77,3,3,0,0,1-.76-2.21,3.3,3.3,0,0,1,.71-2.28,2.45,2.45,0,0,1,2-.8,2.42,2.42,0,0,1,1.86.7,2.73,2.73,0,0,1,.67,2v.77h-3.64a1.48,1.48,0,0,0,.39,1.06,1.32,1.32,0,0,0,1,.39,4.21,4.21,0,0,0,1-.11,5.28,5.28,0,0,0,.95-.35v1.23a3.28,3.28,0,0,1-.86.31A5.17,5.17,0,0,1,299,86.56Zm-.22-4.93A1,1,0,0,0,298,82a1.54,1.54,0,0,0-.32.91h2.16a1.31,1.31,0,0,0-.29-.91A1,1,0,0,0,298.79,81.63Z"/><path class="cls-1" d="M307.62,86.46h-1.54V83a1.74,1.74,0,0,0-.21-1,.71.71,0,0,0-.64-.32.92.92,0,0,0-.86.45,3.05,3.05,0,0,0-.27,1.49v2.75h-1.54V80.61h1.18l.21.75H304a1.63,1.63,0,0,1,.66-.64,2.08,2.08,0,0,1,1-.22,1.74,1.74,0,0,1,1.72.86h.14a1.48,1.48,0,0,1,.67-.64,2.12,2.12,0,0,1,1-.22,2,2,0,0,1,1.46.51,2.27,2.27,0,0,1,.49,1.63v3.82h-1.55V83a1.75,1.75,0,0,0-.2-1,.72.72,0,0,0-.65-.32,1,1,0,0,0-.84.42,2.44,2.44,0,0,0-.28,1.33Z"/><path class="cls-1" d="M315.82,86.56a1.84,1.84,0,0,1-1.56-.74h-.08c.05.49.08.77.08.84V89h-1.54V80.61H314l.22.76h.07a1.77,1.77,0,0,1,1.6-.87,1.8,1.8,0,0,1,1.57.8,3.76,3.76,0,0,1,.56,2.22,4.46,4.46,0,0,1-.26,1.63,2.28,2.28,0,0,1-.76,1A1.88,1.88,0,0,1,315.82,86.56Zm-.45-4.79a1,1,0,0,0-.84.37,2.21,2.21,0,0,0-.27,1.2v.17a2.53,2.53,0,0,0,.27,1.35.94.94,0,0,0,.86.41c.69,0,1-.59,1-1.77a2.58,2.58,0,0,0-.25-1.29A.87.87,0,0,0,315.37,81.77Z"/><path class="cls-1" d="M258.18,45.89q-1.5,0-1.5-1.71a1.87,1.87,0,0,1,.41-1.29,1.49,1.49,0,0,1,1.17-.45,2.13,2.13,0,0,1,1,.23l-.25.7-.39-.14a1.12,1.12,0,0,0-.35-.06c-.46,0-.69.34-.69,1s.23,1,.69,1a1.39,1.39,0,0,0,.46-.07,1.56,1.56,0,0,0,.43-.21v.77a1.26,1.26,0,0,1-.43.19A2,2,0,0,1,258.18,45.89Z"/><path class="cls-1" d="M262.81,44.16a1.85,1.85,0,0,1-.41,1.27,1.46,1.46,0,0,1-1.15.46,1.59,1.59,0,0,1-.82-.21,1.43,1.43,0,0,1-.54-.6,2.07,2.07,0,0,1-.19-.92,1.86,1.86,0,0,1,.41-1.27,1.48,1.48,0,0,1,1.15-.45,1.59,1.59,0,0,1,.82.21,1.37,1.37,0,0,1,.54.6A2,2,0,0,1,262.81,44.16Zm-2.22,0a1.49,1.49,0,0,0,.16.75.54.54,0,0,0,.51.25.53.53,0,0,0,.5-.25,1.49,1.49,0,0,0,.16-.75,1.45,1.45,0,0,0-.16-.74.56.56,0,0,0-.51-.25.55.55,0,0,0-.5.25A1.43,1.43,0,0,0,260.59,44.16Z"/><path class="cls-1" d="M266.45,44.16a1.8,1.8,0,0,1-.42,1.27,1.44,1.44,0,0,1-1.15.46,1.58,1.58,0,0,1-.81-.21,1.31,1.31,0,0,1-.54-.6,2.07,2.07,0,0,1-.19-.92,1.86,1.86,0,0,1,.41-1.27,1.48,1.48,0,0,1,1.15-.45,1.59,1.59,0,0,1,.82.21,1.43,1.43,0,0,1,.54.6A2.14,2.14,0,0,1,266.45,44.16Zm-2.22,0a1.39,1.39,0,0,0,.16.75.54.54,0,0,0,.51.25.53.53,0,0,0,.5-.25,1.5,1.5,0,0,0,.15-.75,1.46,1.46,0,0,0-.15-.74.57.57,0,0,0-.51-.25.55.55,0,0,0-.5.25A1.33,1.33,0,0,0,264.23,44.16Z"/><path class="cls-1" d="M268.05,45.83h-.88V41.2h.88Z"/><path class="cls-1" d="M268.68,44.57v-.75h1.54v.75Z"/><path class="cls-1" d="M272.2,45.17a1.89,1.89,0,0,0,.56-.11v.68a2,2,0,0,1-.81.15.93.93,0,0,1-.76-.28,1.22,1.22,0,0,1-.24-.82v-1.6h-.42V42.8l.48-.3.25-.7h.56v.7h.9v.69h-.9v1.6a.35.35,0,0,0,.11.28A.41.41,0,0,0,272.2,45.17Z"/><path class="cls-1" d="M274.85,45.89a1.62,1.62,0,0,1-1.2-.44,1.7,1.7,0,0,1-.44-1.26,1.86,1.86,0,0,1,.4-1.29,1.59,1.59,0,0,1,2.17-.06,1.53,1.53,0,0,1,.38,1.11v.44H274.1a.86.86,0,0,0,.22.61.76.76,0,0,0,.58.21A2.3,2.3,0,0,0,276,45v.7a1.9,1.9,0,0,1-.49.18A2.84,2.84,0,0,1,274.85,45.89Zm-.12-2.8a.54.54,0,0,0-.43.18.88.88,0,0,0-.19.52h1.23a.76.76,0,0,0-.17-.52A.56.56,0,0,0,274.73,43.09Z"/><path class="cls-1" d="M278.18,45.89q-1.5,0-1.5-1.71a1.82,1.82,0,0,1,.41-1.29,1.48,1.48,0,0,1,1.16-.45,2.14,2.14,0,0,1,1,.23l-.26.7a3.57,3.57,0,0,0-.38-.14,1.13,1.13,0,0,0-.36-.06c-.45,0-.68.34-.68,1s.23,1,.68,1a1.41,1.41,0,0,0,.47-.07,1.71,1.71,0,0,0,.43-.21v.77a1.26,1.26,0,0,1-.43.19A2,2,0,0,1,278.18,45.89Z"/><path class="cls-1" d="M282.85,45.83H282V43.89c0-.48-.17-.72-.52-.72a.57.57,0,0,0-.53.26,1.6,1.6,0,0,0-.16.83v1.57h-.87V41.2h.87v.95c0,.07,0,.24,0,.51l0,.27h0a1,1,0,0,1,.92-.49,1.11,1.11,0,0,1,.86.32,1.25,1.25,0,0,1,.29.9Z"/><path class="cls-1" d="M258.67,49.75a1.23,1.23,0,0,1,.29,0l-.06.85a1,1,0,0,0-.26,0,.92.92,0,0,0-.66.22.85.85,0,0,0-.23.62v1.69h-.87V49.81h.66l.13.56h0a1.17,1.17,0,0,1,.4-.45A1,1,0,0,1,258.67,49.75Z"/><path class="cls-1" d="M261.81,53.13l-.11-.42h-.05a1,1,0,0,1-.4.36,1.37,1.37,0,0,1-.58.12,1.1,1.1,0,0,1-.86-.31,1.29,1.29,0,0,1-.28-.9V49.81h.87v1.94a1,1,0,0,0,.12.54.46.46,0,0,0,.4.18.58.58,0,0,0,.53-.25,1.61,1.61,0,0,0,.16-.84V49.81h.88v3.32Z"/><path class="cls-1" d="M266.36,53.13h-.87V51.19a1,1,0,0,0-.12-.54.46.46,0,0,0-.4-.18.59.59,0,0,0-.53.26,1.61,1.61,0,0,0-.16.84v1.56h-.88V49.81h.67l.12.43h.05a1,1,0,0,1,.4-.37,1.38,1.38,0,0,1,.59-.12,1.07,1.07,0,0,1,.84.31,1.26,1.26,0,0,1,.29.91Z"/><path class="cls-1" d="M270.23,53.13h-.88V51.19a1,1,0,0,0-.12-.54.45.45,0,0,0-.4-.18.59.59,0,0,0-.53.26,1.61,1.61,0,0,0-.16.84v1.56h-.87V49.81h.66l.12.43h.05a1,1,0,0,1,.4-.37,1.38,1.38,0,0,1,.59-.12,1.11,1.11,0,0,1,.85.31,1.31,1.31,0,0,1,.29.91Z"/><path class="cls-1" d="M271.09,49c0-.29.16-.44.47-.44s.48.15.48.44a.45.45,0,0,1-.12.33.49.49,0,0,1-.36.12C271.25,49.4,271.09,49.25,271.09,49Zm.91,4.18h-.87V49.81H272Z"/><path class="cls-1" d="M275.88,53.13H275V51.19a1,1,0,0,0-.12-.54.43.43,0,0,0-.39-.18.58.58,0,0,0-.53.26,1.6,1.6,0,0,0-.17.84v1.56h-.87V49.81h.67l.11.43h.05a.92.92,0,0,1,.41-.37,1.34,1.34,0,0,1,.58-.12,1.1,1.1,0,0,1,.85.31,1.31,1.31,0,0,1,.29.91Z"/><path class="cls-1" d="M279.57,49.81v.46l-.5.14a.92.92,0,0,1,.14.5,1,1,0,0,1-.36.83,1.55,1.55,0,0,1-1,.3h-.16l-.13,0a.32.32,0,0,0-.14.24c0,.13.16.2.49.2h.54a1.28,1.28,0,0,1,.81.23.87.87,0,0,1,.27.69,1,1,0,0,1-.47.91,2.39,2.39,0,0,1-1.34.32,1.85,1.85,0,0,1-1-.24.8.8,0,0,1-.35-.68.76.76,0,0,1,.18-.51,1,1,0,0,1,.53-.28.64.64,0,0,1-.24-.2.53.53,0,0,1-.1-.29.47.47,0,0,1,.11-.31,1,1,0,0,1,.31-.25.88.88,0,0,1-.4-.36,1.15,1.15,0,0,1-.15-.59,1,1,0,0,1,.34-.84,1.44,1.44,0,0,1,1-.3l.31,0,.24,0Zm-2.48,3.79a.33.33,0,0,0,.18.3.92.92,0,0,0,.48.11,1.65,1.65,0,0,0,.74-.14.41.41,0,0,0,.27-.36.25.25,0,0,0-.16-.26,1.24,1.24,0,0,0-.49-.07h-.45a.7.7,0,0,0-.4.11A.38.38,0,0,0,277.09,53.6Zm.32-2.7a.71.71,0,0,0,.12.43.44.44,0,0,0,.37.15.43.43,0,0,0,.36-.15.78.78,0,0,0,.11-.43c0-.4-.16-.6-.47-.6S277.41,50.5,277.41,50.9Z"/><path class="cls-1" d="M312.21,49.69V8.08a8.08,8.08,0,1,0-16.16,0V49.69a12.92,12.92,0,1,0,16.16,0ZM300.9,35.16h3.23V31.93H300.9V25.47h3.23V22.24H300.9V15.77h3.23V12.54H300.9V8.08a3.23,3.23,0,1,1,6.46,0V38H300.9Z"/><path class="cls-1" d="M266.07,21.87a4.27,4.27,0,0,0-1.1,4.9,9.87,9.87,0,0,0-1.52,1.71c-1.82,2.76-3.93,5.41-6.51,2.67-3.82-4.06-1.84-11.79.54-14a6.48,6.48,0,0,1,8.6-.25,5.52,5.52,0,0,1,1.6,2.6c.15.39.3.8.45,1.21A5.06,5.06,0,0,0,266.07,21.87Z"/><path class="cls-1" d="M279,26.25a6.54,6.54,0,0,1-3.26,0L274.44,26a4.31,4.31,0,0,0-1.35-4.13,5.17,5.17,0,0,0-2.79-1.29,9.23,9.23,0,0,0-.89-2.19c-1.69-2.83-3.14-5.83.73-6.51,5.74-1,12.06,4.43,12.93,7.42A5.51,5.51,0,0,1,279,26.25Z"/><path class="cls-1" d="M265.39,29.29l.81-.86a5.3,5.3,0,0,0,6.89-.12,5.47,5.47,0,0,0,.47-.5,11.53,11.53,0,0,0,2.41.36c3.51.06,7.07.41,5.77,3.83-1.92,5.07-10.21,7.36-13.46,6.56s-5.41-3.71-4.54-6.7A5.48,5.48,0,0,1,265.39,29.29Z"/><path class="cls-1" d="M266.52,25.09a3.07,3.07,0,0,1,6.12,0,3.07,3.07,0,0,1-6.12,0Z"/></g></g></svg>