<?xml version="1.0" encoding="UTF-8"?>
<!DOCTYPE svg PUBLIC "-//W3C//DTD SVG 1.1//EN" "http://www.w3.org/Graphics/SVG/1.1/DTD/svg11.dtd">
<!-- Creator: CorelDRAW X7 -->
<svg xmlns="http://www.w3.org/2000/svg" xml:space="preserve" width="8.8976mm" height="25.0241mm" version="1.1" style="shape-rendering:geometricPrecision; text-rendering:geometricPrecision; image-rendering:optimizeQuality; fill-rule:evenodd; clip-rule:evenodd"
viewBox="0 0 71 201"
 xmlns:xlink="http://www.w3.org/1999/xlink">
 <defs>
  <style type="text/css">
   <![CDATA[
    .fil0 {fill:#BDA5BB}
   ]]>
  </style>
 </defs>
 <g id="Layer_x0020_1">
  <metadata id="CorelCorpID_0Corel-Layer"/>
  <g id="_2084416959600">
   <path class="fil0" d="M58 137l0 -115c0,-12 -10,-22 -22,-22 -13,0 -23,10 -23,22l0 115c-8,7 -13,17 -13,28 0,20 16,36 36,36 19,0 35,-16 35,-36 0,-11 -5,-21 -13,-28zm-31 -40l9 0 0 -9 -9 0 0 -18 9 0 0 -9 -9 0 0 -17 9 0 0 -9 -9 0 0 -13c0,-5 4,-9 9,-9 5,0 9,4 9,9l0 83 -18 0 0 -8z"/>
  </g>
 </g>
</svg>
