<?xml version="1.0" encoding="UTF-8"?>
<!DOCTYPE svg PUBLIC "-//W3C//DTD SVG 1.1//EN" "http://www.w3.org/Graphics/SVG/1.1/DTD/svg11.dtd">
<!-- Creator: CorelDRAW X7 -->
<svg xmlns="http://www.w3.org/2000/svg" xml:space="preserve" width="17.2065mm" height="22.5477mm" version="1.1" style="shape-rendering:geometricPrecision; text-rendering:geometricPrecision; image-rendering:optimizeQuality; fill-rule:evenodd; clip-rule:evenodd"
viewBox="0 0 602 789"
 xmlns:xlink="http://www.w3.org/1999/xlink">
 <defs>
  <style type="text/css">
   <![CDATA[
    .fil0 {fill:#87CFC8}
   ]]>
  </style>
 </defs>
 <g id="Layer_x0020_1">
  <metadata id="CorelCorpID_0Corel-Layer"/>
  <path class="fil0" d="M529 321l-22 0 0 0 -78 0 0 0 -270 0 0 -108c0,-74 61,-134 135,-134 68,0 124,50 133,115l77 -15c-16,-101 -104,-179 -210,-179 -118,0 -213,96 -213,213l0 108 -8 0c-40,0 -73,33 -73,74l0 321c0,40 33,73 73,73l456 0c40,0 73,-33 73,-73l0 -322c0,-40 -33,-73 -73,-73z"/>
 </g>
</svg>
