<svg xmlns="http://www.w3.org/2000/svg" viewBox="0 0 112.8 78.15"><defs><style>.cls-1{fill:#3e353c;}</style></defs><title>Asset 1</title><g id="Layer_2" data-name="Layer 2"><g id="Layer_1-2" data-name="Layer 1"><g id="Layer_1-3" data-name="Layer_1"><path class="cls-1" d="M14.3,35.64c-.89-.73-1.72-1.33-2.45-2C7.91,29.8,4,26,0,22.17c35.11-30,80.17-29.13,112.8,0L99.28,36.08C71.07,14.44,42.72,14.49,14.3,35.64ZM56.58,78.15,44.85,66.44c5.11-6.76,17.28-6.9,23.88-.2Zm35.2-35.06L77.9,56.82c-6.26-3.65-13.23-6.26-21-6.24h-.34a38.45,38.45,0,0,0-21,6.28L22,42.68C38.23,26.73,74.94,26.79,91.78,43.09Z"/></g></g></g></svg>