<?xml version="1.0" encoding="UTF-8"?>
<!DOCTYPE svg PUBLIC "-//W3C//DTD SVG 1.1//EN" "http://www.w3.org/Graphics/SVG/1.1/DTD/svg11.dtd">
<!-- Creator: CorelDRAW X7 -->
<svg xmlns="http://www.w3.org/2000/svg" xml:space="preserve" width="39.7933mm" height="27.5702mm" version="1.1" style="shape-rendering:geometricPrecision; text-rendering:geometricPrecision; image-rendering:optimizeQuality; fill-rule:evenodd; clip-rule:evenodd"
viewBox="0 0 4922 3410"
 xmlns:xlink="http://www.w3.org/1999/xlink">
 <defs>
  <style type="text/css">
   <![CDATA[
    .fil0 {fill:#FCFAFC}
   ]]>
  </style>
 </defs>
 <g id="Layer_x0020_1">
  <metadata id="CorelCorpID_0Corel-Layer"/>
  <path class="fil0" d="M624 1555c-39,-32 -75,-58 -107,-89 -172,-166 -344,-333 -517,-499 1532,-1308 3498,-1271 4922,0l-590 607c-1231,-944 -2468,-942 -3708,-19zm1845 1855l-512 -511c223,-295 754,-301 1042,-9l-530 520zm1536 -1530l-606 599c-273,-159 -577,-273 -917,-272 -5,0 -11,0 -15,0 -326,0 -645,96 -917,274l-590 -619c708,-696 2310,-693 3045,18z"/>
 </g>
</svg>
